Benne-Regular.ufo
<glyph name="knVisarga" format="1">
  <advance width="341"/>
  <unicode hex="0C83"/>
  <outline>
    <contour>
      <point x="88" y="377"/>
      <point x="125" y="419"/>
      <point x="170" y="419" type="curve" smooth="yes"/>
      <point x="216" y="419"/>
      <point x="253" y="377"/>
      <point x="253" y="326" type="curve" smooth="yes"/>
      <point x="253" y="276"/>
      <point x="216" y="234"/>
      <point x="170" y="234" type="curve" smooth="yes"/>
      <point x="125" y="234"/>
      <point x="88" y="276"/>
      <point x="88" y="326" type="curve" smooth="yes"/>
    </contour>
    <contour>
      <point x="119" y="297"/>
      <point x="142" y="275"/>
      <point x="170" y="275" type="curve" smooth="yes"/>
      <point x="199" y="275"/>
      <point x="222" y="297"/>
      <point x="222" y="326" type="curve" smooth="yes"/>
      <point x="222" y="355"/>
      <point x="199" y="378"/>
      <point x="170" y="378" type="curve" smooth="yes"/>
      <point x="142" y="378"/>
      <point x="119" y="355"/>
      <point x="119" y="326" type="curve" smooth="yes"/>
    </contour>
    <contour>
      <point x="88" y="130"/>
      <point x="125" y="172"/>
      <point x="170" y="172" type="curve" smooth="yes"/>
      <point x="216" y="172"/>
      <point x="253" y="130"/>
      <point x="253" y="79" type="curve" smooth="yes"/>
      <point x="253" y="29"/>
      <point x="216" y="-14"/>
      <point x="170" y="-14" type="curve" smooth="yes"/>
      <point x="125" y="-14"/>
      <point x="88" y="29"/>
      <point x="88" y="79" type="curve" smooth="yes"/>
    </contour>
    <contour>
      <point x="119" y="50"/>
      <point x="142" y="28"/>
      <point x="170" y="28" type="curve" smooth="yes"/>
      <point x="199" y="28"/>
      <point x="222" y="50"/>
      <point x="222" y="79" type="curve" smooth="yes"/>
      <point x="222" y="108"/>
      <point x="199" y="131"/>
      <point x="170" y="131" type="curve" smooth="yes"/>
      <point x="142" y="131"/>
      <point x="119" y="108"/>
      <point x="119" y="79" type="curve" smooth="yes"/>
    </contour>
  </outline>
</glyph>
<glyph name="knA" format="1">
  <advance width="787"/>
  <unicode hex="0C85"/>
  <outline>
    <contour>
      <point x="175" y="394"/>
      <point x="187" y="397"/>
      <point x="199" y="397" type="curve" smooth="yes"/>
      <point x="241" y="397"/>
      <point x="262" y="381"/>
      <point x="262" y="347" type="curve" smooth="yes"/>
      <point x="262" y="324"/>
      <point x="246" y="306"/>
      <point x="214" y="306" type="curve" smooth="yes"/>
      <point x="186" y="306"/>
      <point x="162" y="322"/>
      <point x="162" y="362" type="curve" smooth="yes"/>
      <point x="162" y="371"/>
      <point x="163" y="381"/>
      <point x="165" y="390" type="curve"/>
    </contour>
    <contour>
      <point x="536" y="-14"/>
      <point x="644" y="88"/>
      <point x="644" y="244" type="curve" smooth="yes"/>
      <point x="644" y="358"/>
      <point x="575" y="450"/>
      <point x="500" y="450" type="curve" smooth="yes"/>
      <point x="439" y="450"/>
      <point x="416" y="404"/>
      <point x="416" y="350" type="curve" smooth="yes"/>
      <point x="416" y="328"/>
      <point x="421" y="313"/>
      <point x="429" y="306" type="curve"/>
      <point x="346" y="306" type="line"/>
      <point x="346" y="244" type="line"/>
      <point x="546" y="244" type="line"/>
      <point x="546" y="306" type="line"/>
      <point x="500" y="306" type="line" smooth="yes"/>
      <point x="458" y="306"/>
      <point x="442" y="324"/>
      <point x="442" y="350" type="curve" smooth="yes"/>
      <point x="442" y="381"/>
      <point x="463" y="397"/>
      <point x="500" y="397" type="curve" smooth="yes"/>
      <point x="568" y="397"/>
      <point x="603" y="336"/>
      <point x="603" y="254" type="curve" smooth="yes"/>
      <point x="603" y="151"/>
      <point x="517" y="79"/>
      <point x="352" y="79" type="curve"/>
      <point x="186" y="79"/>
      <point x="101" y="151"/>
      <point x="101" y="254" type="curve" smooth="yes"/>
      <point x="101" y="306"/>
      <point x="115" y="346"/>
      <point x="139" y="371" type="curve"/>
      <point x="137" y="361"/>
      <point x="136" y="350"/>
      <point x="136" y="338" type="curve" smooth="yes"/>
      <point x="136" y="275"/>
      <point x="172" y="244"/>
      <point x="214" y="244" type="curve" smooth="yes"/>
      <point x="260" y="244"/>
      <point x="288" y="290"/>
      <point x="288" y="347" type="curve" smooth="yes"/>
      <point x="288" y="404"/>
      <point x="265" y="450"/>
      <point x="204" y="450" type="curve" smooth="yes"/>
      <point x="129" y="450"/>
      <point x="60" y="358"/>
      <point x="60" y="244" type="curve" smooth="yes"/>
      <point x="60" y="88"/>
      <point x="168" y="-14"/>
      <point x="352" y="-14" type="curve"/>
    </contour>
  </outline>
</glyph>
<glyph name="knvR" format="1">
  <advance width="976"/>
  <unicode hex="0C8B"/>
  <outline>
    <contour>
      <point x="578" y="557" type="line"/>
      <point x="602" y="542"/>
      <point x="610" y="520"/>
      <point x="610" y="501" type="curve" smooth="yes"/>
      <point x="610" y="465"/>
      <point x="583" y="440"/>
      <point x="538" y="440" type="curve" smooth="yes"/>
      <point x="370" y="440" type="line"/>
      <point x="370" y="368" type="line"/>
      <point x="538" y="368" type="line" smooth="yes"/>
      <point x="607" y="368"/>
      <point x="656" y="416"/>
      <point x="656" y="476" type="curve" smooth="yes"/>
      <point x="656" y="515"/>
      <point x="636" y="551"/>
      <point x="591" y="575" type="curve"/>
    </contour>
    <contour>
      <point x="921" y="339"/>
      <point x="822" y="450"/>
      <point x="747" y="450" type="curve" smooth="yes"/>
      <point x="716" y="450"/>
      <point x="699" y="433"/>
      <point x="699" y="413" type="curve" smooth="yes"/>
      <point x="699" y="398"/>
      <point x="708" y="385"/>
      <point x="720" y="379" type="curve" smooth="yes"/>
      <point x="733" y="372"/>
      <point x="753" y="376"/>
      <point x="781" y="370" type="curve" smooth="yes"/>
      <point x="834" y="359"/>
      <point x="885" y="286"/>
      <point x="885" y="213" type="curve"/>
      <point x="885" y="136"/>
      <point x="825" y="79"/>
      <point x="751" y="79" type="curve"/>
      <point x="692" y="79"/>
      <point x="632" y="124"/>
      <point x="615" y="163" type="curve"/>
      <point x="594" y="102" type="line"/>
      <point x="622" y="52"/>
      <point x="696" y="-14"/>
      <point x="761" y="-14" type="curve"/>
      <point x="870" y="-14"/>
      <point x="921" y="93"/>
      <point x="921" y="203" type="curve"/>
    </contour>
    <contour>
      <point x="327" y="343"/>
      <point x="235" y="450"/>
      <point x="154" y="450" type="curve" smooth="yes"/>
      <point x="93" y="450"/>
      <point x="70" y="404"/>
      <point x="70" y="347" type="curve" smooth="yes"/>
      <point x="70" y="290"/>
      <point x="98" y="244"/>
      <point x="144" y="244" type="curve" smooth="yes"/>
      <point x="186" y="244"/>
      <point x="222" y="275"/>
      <point x="222" y="338" type="curve" smooth="yes"/>
      <point x="222" y="370"/>
      <point x="215" y="398"/>
      <point x="204" y="417" type="curve"/>
      <point x="183" y="413" type="line"/>
      <point x="192" y="403"/>
      <point x="196" y="382"/>
      <point x="196" y="362" type="curve" smooth="yes"/>
      <point x="196" y="322"/>
      <point x="172" y="306"/>
      <point x="144" y="306" type="curve" smooth="yes"/>
      <point x="112" y="306"/>
      <point x="96" y="324"/>
      <point x="96" y="347" type="curve" smooth="yes"/>
      <point x="96" y="381"/>
      <point x="117" y="397"/>
      <point x="159" y="397" type="curve" smooth="yes"/>
      <point x="226" y="397"/>
      <point x="291" y="295"/>
      <point x="291" y="214" type="curve"/>
      <point x="291" y="111"/>
      <point x="226" y="39"/>
      <point x="159" y="39" type="curve" smooth="yes"/>
      <point x="117" y="39"/>
      <point x="96" y="55"/>
      <point x="96" y="89" type="curve" smooth="yes"/>
      <point x="96" y="112"/>
      <point x="112" y="130"/>
      <point x="144" y="130" type="curve" smooth="yes"/>
      <point x="172" y="130"/>
      <point x="196" y="114"/>
      <point x="196" y="74" type="curve" smooth="yes"/>
      <point x="196" y="54"/>
      <point x="192" y="33"/>
      <point x="183" y="23" type="curve"/>
      <point x="204" y="19" type="line"/>
      <point x="215" y="38"/>
      <point x="222" y="66"/>
      <point x="222" y="98" type="curve" smooth="yes"/>
      <point x="222" y="161"/>
      <point x="186" y="192"/>
      <point x="144" y="192" type="curve" smooth="yes"/>
      <point x="98" y="192"/>
      <point x="70" y="146"/>
      <point x="70" y="89" type="curve" smooth="yes"/>
      <point x="70" y="32"/>
      <point x="93" y="-14"/>
      <point x="154" y="-14" type="curve" smooth="yes"/>
      <point x="235" y="-14"/>
      <point x="327" y="91"/>
      <point x="327" y="207" type="curve"/>
    </contour>
    <contour>
      <point x="627" y="339"/>
      <point x="528" y="440"/>
      <point x="453" y="440" type="curve" smooth="yes"/>
      <point x="422" y="440"/>
      <point x="405" y="423"/>
      <point x="405" y="403" type="curve" smooth="yes"/>
      <point x="405" y="383"/>
      <point x="415" y="368"/>
      <point x="441" y="368" type="curve"/>
      <point x="527" y="368"/>
      <point x="591" y="292"/>
      <point x="591" y="213" type="curve" smooth="yes"/>
      <point x="591" y="136"/>
      <point x="531" y="79"/>
      <point x="457" y="79" type="curve"/>
      <point x="398" y="79"/>
      <point x="338" y="124"/>
      <point x="321" y="163" type="curve"/>
      <point x="300" y="102" type="line"/>
      <point x="328" y="52"/>
      <point x="402" y="-14"/>
      <point x="467" y="-14" type="curve"/>
      <point x="576" y="-14"/>
      <point x="627" y="93"/>
      <point x="627" y="203" type="curve" smooth="yes"/>
    </contour>
  </outline>
</glyph>
<glyph name="knvL" format="1">
  <advance width="829"/>
  <unicode hex="0C8C"/>
  <outline>
    <contour>
      <point x="789" y="322"/>
      <point x="699" y="441"/>
      <point x="624" y="441" type="curve" smooth="yes"/>
      <point x="593" y="441"/>
      <point x="576" y="424"/>
      <point x="576" y="404" type="curve" smooth="yes"/>
      <point x="576" y="389"/>
      <point x="585" y="376"/>
      <point x="597" y="370" type="curve" smooth="yes"/>
      <point x="610" y="363"/>
      <point x="630" y="368"/>
      <point x="658" y="361" type="curve" smooth="yes"/>
      <point x="701" y="350"/>
      <point x="752" y="264"/>
      <point x="752" y="185" type="curve"/>
      <point x="752" y="116"/>
      <point x="702" y="79"/>
      <point x="625" y="79" type="curve" smooth="yes"/>
      <point x="478" y="79" type="line" smooth="yes"/>
      <point x="424" y="79"/>
      <point x="396" y="102"/>
      <point x="396" y="138" type="curve" smooth="yes"/>
      <point x="396" y="217"/>
      <point x="520" y="200"/>
      <point x="520" y="321" type="curve" smooth="yes"/>
      <point x="520" y="399"/>
      <point x="469" y="450"/>
      <point x="413" y="450" type="curve" smooth="yes"/>
      <point x="353" y="450"/>
      <point x="294" y="399"/>
      <point x="274" y="326" type="curve"/>
      <point x="272" y="326" type="line"/>
      <point x="252" y="399"/>
      <point x="192" y="450"/>
      <point x="132" y="450" type="curve" smooth="yes"/>
      <point x="66" y="450"/>
      <point x="15" y="395"/>
      <point x="15" y="326" type="curve" smooth="yes"/>
      <point x="15" y="300"/>
      <point x="22" y="277"/>
      <point x="41" y="256" type="curve"/>
      <point x="68" y="274" type="line"/>
      <point x="62" y="281"/>
      <point x="57" y="294"/>
      <point x="57" y="306" type="curve" smooth="yes"/>
      <point x="57" y="339"/>
      <point x="84" y="368"/>
      <point x="135" y="368" type="curve" smooth="yes"/>
      <point x="200" y="368"/>
      <point x="257" y="310"/>
      <point x="269" y="244" type="curve"/>
      <point x="277" y="244" type="line"/>
      <point x="288" y="310"/>
      <point x="345" y="368"/>
      <point x="409" y="368" type="curve" smooth="yes"/>
      <point x="455" y="368"/>
      <point x="479" y="334"/>
      <point x="479" y="296" type="curve" smooth="yes"/>
      <point x="479" y="232"/>
      <point x="355" y="237"/>
      <point x="355" y="120" type="curve" smooth="yes"/>
      <point x="355" y="46"/>
      <point x="401" y="-14"/>
      <point x="458" y="-14" type="curve" smooth="yes"/>
      <point x="625" y="-14" type="line" smooth="yes"/>
      <point x="728" y="-14"/>
      <point x="789" y="62"/>
      <point x="789" y="167" type="curve"/>
    </contour>
  </outline>
</glyph>
<glyph name="knE" format="1">
  <advance width="644"/>
  <unicode hex="0C8E"/>
  <outline>
    <contour>
      <point x="282" y="125"/>
      <point x="224" y="79"/>
      <point x="161" y="79" type="curve" smooth="yes"/>
      <point x="113" y="79"/>
      <point x="89" y="-14"/>
      <point x="155" y="-14" type="curve" smooth="yes"/>
      <point x="217" y="-14"/>
      <point x="277" y="37"/>
      <point x="297" y="110" type="curve"/>
      <point x="299" y="110" type="line"/>
      <point x="319" y="37"/>
      <point x="378" y="-14"/>
      <point x="441" y="-14" type="curve" smooth="yes"/>
      <point x="533" y="-14"/>
      <point x="589" y="66"/>
      <point x="589" y="193" type="curve" smooth="yes"/>
      <point x="589" y="369"/>
      <point x="420" y="450"/>
      <point x="305" y="450" type="curve" smooth="yes"/>
      <point x="274" y="450"/>
      <point x="257" y="433"/>
      <point x="257" y="413" type="curve" smooth="yes"/>
      <point x="257" y="398"/>
      <point x="265" y="384"/>
      <point x="278" y="379" type="curve" smooth="yes"/>
      <point x="297" y="372"/>
      <point x="314" y="380"/>
      <point x="339" y="380" type="curve" smooth="yes"/>
      <point x="452" y="380"/>
      <point x="553" y="313"/>
      <point x="553" y="204" type="curve" smooth="yes"/>
      <point x="553" y="144"/>
      <point x="519" y="79"/>
      <point x="431" y="79" type="curve" smooth="yes"/>
      <point x="371" y="79"/>
      <point x="313" y="127"/>
      <point x="302" y="192" type="curve"/>
      <point x="294" y="192" type="line"/>
    </contour>
    <contour>
      <point x="161" y="79" type="line"/>
      <point x="113" y="79"/>
      <point x="87" y="108"/>
      <point x="87" y="143" type="curve" smooth="yes"/>
      <point x="87" y="175"/>
      <point x="110" y="196"/>
      <point x="142" y="196" type="curve" smooth="yes"/>
      <point x="168" y="196"/>
      <point x="190" y="187"/>
      <point x="199" y="166" type="curve"/>
      <point x="213" y="179" type="line"/>
      <point x="202" y="216"/>
      <point x="181" y="248"/>
      <point x="139" y="248" type="curve" smooth="yes"/>
      <point x="87" y="248"/>
      <point x="50" y="200"/>
      <point x="50" y="123" type="curve" smooth="yes"/>
      <point x="50" y="47"/>
      <point x="89" y="-14"/>
      <point x="155" y="-14" type="curve"/>
    </contour>
  </outline>
</glyph>
<glyph name="knAI" format="1">
  <advance width="658"/>
  <unicode hex="0C90"/>
  <outline>
    <contour>
      <point x="392" y="450"/>
      <point x="333" y="399"/>
      <point x="313" y="326" type="curve"/>
      <point x="311" y="326" type="line"/>
      <point x="291" y="399"/>
      <point x="231" y="450"/>
      <point x="171" y="450" type="curve" smooth="yes"/>
      <point x="94" y="450"/>
      <point x="40" y="373"/>
      <point x="40" y="303" type="curve"/>
      <point x="67" y="285" type="line"/>
      <point x="81" y="326"/>
      <point x="113" y="368"/>
      <point x="174" y="368" type="curve" smooth="yes"/>
      <point x="239" y="368"/>
      <point x="296" y="310"/>
      <point x="308" y="244" type="curve"/>
      <point x="316" y="244" type="line"/>
      <point x="327" y="309"/>
      <point x="384" y="368"/>
      <point x="448" y="368" type="curve" smooth="yes"/>
      <point x="517" y="368"/>
      <point x="567" y="320"/>
      <point x="567" y="219" type="curve" smooth="yes"/>
      <point x="567" y="130"/>
      <point x="523" y="79"/>
      <point x="448" y="79" type="curve" smooth="yes"/>
      <point x="384" y="79"/>
      <point x="327" y="127"/>
      <point x="316" y="192" type="curve"/>
      <point x="308" y="192" type="line"/>
      <point x="296" y="126"/>
      <point x="239" y="79"/>
      <point x="176" y="79" type="curve" smooth="yes"/>
      <point x="128" y="79"/>
      <point x="102" y="108"/>
      <point x="102" y="143" type="curve" smooth="yes"/>
      <point x="102" y="175"/>
      <point x="125" y="196"/>
      <point x="157" y="196" type="curve" smooth="yes"/>
      <point x="183" y="196"/>
      <point x="205" y="187"/>
      <point x="214" y="166" type="curve"/>
      <point x="228" y="179" type="line"/>
      <point x="217" y="216"/>
      <point x="196" y="248"/>
      <point x="154" y="248" type="curve" smooth="yes"/>
      <point x="102" y="248"/>
      <point x="65" y="200"/>
      <point x="65" y="123" type="curve" smooth="yes"/>
      <point x="65" y="47"/>
      <point x="106" y="-13"/>
      <point x="171" y="-14" type="curve" smooth="yes"/>
      <point x="231" y="-14"/>
      <point x="291" y="37"/>
      <point x="311" y="110" type="curve"/>
      <point x="313" y="110" type="line"/>
      <point x="333" y="37"/>
      <point x="382" y="-14"/>
      <point x="452" y="-14" type="curve" smooth="yes"/>
      <point x="547" y="-14"/>
      <point x="603" y="65"/>
      <point x="603" y="219" type="curve" smooth="yes"/>
      <point x="603" y="338"/>
      <point x="550" y="450"/>
      <point x="452" y="450" type="curve" smooth="yes"/>
    </contour>
  </outline>
</glyph>
<glyph name="knKA" format="1">
  <advance width="445"/>
  <unicode hex="0C95"/>
  <outline>
    <contour>
      <point x="201" y="270"/>
      <point x="183" y="268"/>
      <point x="159" y="258" type="curve" smooth="yes"/>
      <point x="116" y="240"/>
      <point x="84" y="187"/>
      <point x="84" y="134" type="curve" smooth="yes"/>
      <point x="84" y="53"/>
      <point x="145" y="-14"/>
      <point x="220" y="-14" type="curve"/>
      <point x="295" y="-14"/>
      <point x="356" y="53"/>
      <point x="356" y="134" type="curve" smooth="yes"/>
      <point x="356" y="187"/>
      <point x="324" y="240"/>
      <point x="281" y="258" type="curve" smooth="yes"/>
      <point x="257" y="268"/>
      <point x="239" y="270"/>
      <point x="220" y="270" type="curve"/>
    </contour>
    <contour>
      <point x="271" y="257"/>
      <point x="312" y="217"/>
      <point x="312" y="166" type="curve" smooth="yes"/>
      <point x="312" y="115"/>
      <point x="271" y="74"/>
      <point x="220" y="74" type="curve" smooth="yes"/>
      <point x="169" y="74"/>
      <point x="128" y="115"/>
      <point x="128" y="166" type="curve" smooth="yes"/>
      <point x="128" y="217"/>
      <point x="169" y="257"/>
      <point x="220" y="257" type="curve" smooth="yes"/>
    </contour>
    <contour>
      <point x="179" y="388" type="line"/>
      <point x="225" y="368"/>
      <point x="225" y="316"/>
      <point x="179" y="296" type="curve"/>
      <point x="192" y="267" type="line"/>
      <point x="263" y="297"/>
      <point x="253" y="387"/>
      <point x="192" y="417" type="curve"/>
    </contour>
    <contour>
      <point x="312" y="557" type="line"/>
      <point x="336" y="542"/>
      <point x="344" y="520"/>
      <point x="344" y="501" type="curve" smooth="yes"/>
      <point x="344" y="465"/>
      <point x="317" y="440"/>
      <point x="272" y="440" type="curve" smooth="yes"/>
      <point x="35" y="440" type="line"/>
      <point x="35" y="368" type="line"/>
      <point x="272" y="368" type="line"/>
      <point x="341" y="368"/>
      <point x="390" y="416"/>
      <point x="390" y="476" type="curve" smooth="yes"/>
      <point x="390" y="515"/>
      <point x="370" y="551"/>
      <point x="325" y="575" type="curve"/>
    </contour>
    <contour>
      <point x="35" y="316" type="line"/>
      <point x="35" y="254" type="line"/>
      <point x="172" y="254" type="line"/>
      <point x="220" y="264" type="line" smooth="yes"/>
      <point x="272" y="254" type="line"/>
      <point x="415" y="254" type="line"/>
      <point x="415" y="316" type="line"/>
    </contour>
  </outline>
</glyph>
<glyph name="knGA" format="1">
  <advance width="542"/>
  <unicode hex="0C97"/>
  <outline>
    <contour>
      <point x="209" y="382" type="line"/>
      <point x="120" y="329"/>
      <point x="65" y="215"/>
      <point x="65" y="62" type="curve" smooth="yes"/>
      <point x="65" y="0" type="line"/>
      <point x="137" y="0" type="line"/>
      <point x="137" y="103" type="line" smooth="yes"/>
      <point x="137" y="263"/>
      <point x="197" y="368"/>
      <point x="271" y="368" type="curve" smooth="yes"/>
      <point x="345" y="368"/>
      <point x="405" y="263"/>
      <point x="405" y="103" type="curve" smooth="yes"/>
      <point x="405" y="0" type="line"/>
      <point x="477" y="0" type="line"/>
      <point x="477" y="62" type="line" smooth="yes"/>
      <point x="477" y="215"/>
      <point x="422" y="329"/>
      <point x="333" y="382" type="curve"/>
      <point x="271" y="396" type="line"/>
    </contour>
    <contour>
      <point x="394" y="557" type="line"/>
      <point x="418" y="542"/>
      <point x="426" y="520"/>
      <point x="426" y="501" type="curve" smooth="yes"/>
      <point x="426" y="465"/>
      <point x="399" y="440"/>
      <point x="354" y="440" type="curve" smooth="yes"/>
      <point x="75" y="440" type="line"/>
      <point x="75" y="368" type="line"/>
      <point x="354" y="368" type="line"/>
      <point x="423" y="368"/>
      <point x="472" y="416"/>
      <point x="472" y="476" type="curve" smooth="yes"/>
      <point x="472" y="515"/>
      <point x="452" y="551"/>
      <point x="407" y="575" type="curve"/>
    </contour>
  </outline>
</glyph>
<glyph name="knGHA" format="1">
  <advance width="759"/>
  <unicode hex="0C98"/>
  <outline>
    <contour>
      <point x="302" y="337"/>
      <point x="280" y="314"/>
      <point x="280" y="286" type="curve" smooth="yes"/>
      <point x="280" y="257"/>
      <point x="302" y="234"/>
      <point x="331" y="234" type="curve" smooth="yes"/>
      <point x="360" y="234"/>
      <point x="383" y="257"/>
      <point x="383" y="286" type="curve" smooth="yes"/>
      <point x="383" y="314"/>
      <point x="360" y="337"/>
      <point x="331" y="337" type="curve" smooth="yes"/>
    </contour>
    <contour>
      <point x="634" y="409" type="line"/>
      <point x="664" y="387"/>
      <point x="691" y="347"/>
      <point x="691" y="310" type="curve" smooth="yes"/>
      <point x="691" y="277"/>
      <point x="675" y="254"/>
      <point x="645" y="254" type="curve" smooth="yes"/>
      <point x="601" y="254"/>
      <point x="556" y="318"/>
      <point x="542" y="337" type="curve"/>
      <point x="522" y="322" type="line"/>
      <point x="554" y="249"/>
      <point x="613" y="182"/>
      <point x="662" y="182" type="curve" smooth="yes"/>
      <point x="710" y="182"/>
      <point x="734" y="218"/>
      <point x="734" y="279" type="curve" smooth="yes"/>
      <point x="734" y="347"/>
      <point x="695" y="396"/>
      <point x="647" y="424" type="curve"/>
    </contour>
    <contour>
      <point x="310" y="124"/>
      <point x="257" y="79"/>
      <point x="192" y="79" type="curve"/>
      <point x="138" y="79"/>
      <point x="112" y="108"/>
      <point x="112" y="143" type="curve" smooth="yes"/>
      <point x="112" y="175"/>
      <point x="135" y="196"/>
      <point x="167" y="196" type="curve" smooth="yes"/>
      <point x="193" y="196"/>
      <point x="215" y="187"/>
      <point x="224" y="166" type="curve"/>
      <point x="238" y="179" type="line"/>
      <point x="227" y="216"/>
      <point x="206" y="248"/>
      <point x="164" y="248" type="curve"/>
      <point x="112" y="248"/>
      <point x="75" y="200"/>
      <point x="75" y="123" type="curve" smooth="yes"/>
      <point x="75" y="47"/>
      <point x="114" y="-14"/>
      <point x="187" y="-14" type="curve"/>
      <point x="249" y="-14"/>
      <point x="309" y="33"/>
      <point x="329" y="110" type="curve"/>
      <point x="333" y="110" type="line"/>
      <point x="353" y="37"/>
      <point x="413" y="-14"/>
      <point x="470" y="-14" type="curve" smooth="yes"/>
      <point x="539" y="-14"/>
      <point x="594" y="46"/>
      <point x="594" y="150" type="curve" smooth="yes"/>
      <point x="594" y="217"/>
      <point x="570" y="307"/>
      <point x="542" y="337" type="curve"/>
      <point x="522" y="322" type="line"/>
      <point x="537" y="285"/>
      <point x="543" y="242"/>
      <point x="543" y="189" type="curve" smooth="yes"/>
      <point x="543" y="128"/>
      <point x="516" y="79"/>
      <point x="458" y="79" type="curve" smooth="yes"/>
      <point x="407" y="79"/>
      <point x="353" y="126"/>
      <point x="341" y="192" type="curve"/>
      <point x="321" y="192" type="line"/>
    </contour>
    <contour>
      <point x="387" y="-80"/>
      <point x="350" y="-31"/>
      <point x="339" y="38" type="curve"/>
      <point x="323" y="38" type="line"/>
      <point x="313" y="-31"/>
      <point x="275" y="-80"/>
      <point x="275" y="-116" type="curve" smooth="yes"/>
      <point x="275" y="-158"/>
      <point x="308" y="-176"/>
      <point x="331" y="-176" type="curve"/>
      <point x="352" y="-176"/>
      <point x="387" y="-162"/>
      <point x="387" y="-116" type="curve" smooth="yes"/>
    </contour>
    <contour>
      <point x="526" y="557" type="line"/>
      <point x="550" y="542"/>
      <point x="558" y="520"/>
      <point x="558" y="501" type="curve" smooth="yes"/>
      <point x="558" y="465"/>
      <point x="531" y="440"/>
      <point x="486" y="440" type="curve" smooth="yes"/>
      <point x="75" y="440" type="line"/>
      <point x="75" y="368" type="line"/>
      <point x="486" y="368" type="line"/>
      <point x="555" y="368"/>
      <point x="604" y="416"/>
      <point x="604" y="476" type="curve" smooth="yes"/>
      <point x="604" y="515"/>
      <point x="584" y="551"/>
      <point x="539" y="575" type="curve"/>
    </contour>
  </outline>
</glyph>
<glyph name="knCHA" format="1">
  <advance width="717"/>
  <unicode hex="0C9B"/>
  <outline>
    <contour>
      <point x="417" y="-80"/>
      <point x="380" y="-31"/>
      <point x="369" y="38" type="curve"/>
      <point x="353" y="38" type="line"/>
      <point x="343" y="-31"/>
      <point x="305" y="-80"/>
      <point x="305" y="-116" type="curve" smooth="yes"/>
      <point x="305" y="-158"/>
      <point x="338" y="-176"/>
      <point x="361" y="-176" type="curve"/>
      <point x="382" y="-176"/>
      <point x="417" y="-162"/>
      <point x="417" y="-116" type="curve" smooth="yes"/>
    </contour>
    <contour>
      <point x="544" y="557" type="line"/>
      <point x="568" y="542"/>
      <point x="576" y="520"/>
      <point x="576" y="501" type="curve" smooth="yes"/>
      <point x="576" y="465"/>
      <point x="549" y="440"/>
      <point x="504" y="440" type="curve" smooth="yes"/>
      <point x="370" y="440" type="line"/>
      <point x="370" y="368" type="line"/>
      <point x="504" y="368" type="line"/>
      <point x="553" y="368"/>
      <point x="622" y="416"/>
      <point x="622" y="476" type="curve" smooth="yes"/>
      <point x="622" y="515"/>
      <point x="602" y="551"/>
      <point x="557" y="575" type="curve"/>
    </contour>
    <contour>
      <point x="106" y="322"/>
      <point x="143" y="397"/>
      <point x="210" y="397" type="curve" smooth="yes"/>
      <point x="252" y="397"/>
      <point x="273" y="381"/>
      <point x="273" y="347" type="curve" smooth="yes"/>
      <point x="273" y="324"/>
      <point x="257" y="306"/>
      <point x="225" y="306" type="curve" smooth="yes"/>
      <point x="197" y="306"/>
      <point x="173" y="322"/>
      <point x="173" y="362" type="curve" smooth="yes"/>
      <point x="173" y="382"/>
      <point x="177" y="403"/>
      <point x="186" y="413" type="curve"/>
      <point x="165" y="417" type="line"/>
      <point x="154" y="398"/>
      <point x="147" y="370"/>
      <point x="147" y="338" type="curve" smooth="yes"/>
      <point x="147" y="275"/>
      <point x="183" y="244"/>
      <point x="225" y="244" type="curve" smooth="yes"/>
      <point x="271" y="244"/>
      <point x="299" y="290"/>
      <point x="299" y="347" type="curve" smooth="yes"/>
      <point x="299" y="404"/>
      <point x="276" y="450"/>
      <point x="215" y="450" type="curve" smooth="yes"/>
      <point x="134" y="450"/>
      <point x="70" y="345"/>
      <point x="70" y="229" type="curve" smooth="yes"/>
      <point x="70" y="65"/>
      <point x="122" y="-14"/>
      <point x="221" y="-14" type="curve" smooth="yes"/>
      <point x="291" y="-14"/>
      <point x="340" y="37"/>
      <point x="360" y="110" type="curve"/>
      <point x="362" y="110" type="line"/>
      <point x="382" y="37"/>
      <point x="431" y="-14"/>
      <point x="501" y="-14" type="curve" smooth="yes"/>
      <point x="596" y="-14"/>
      <point x="652" y="65"/>
      <point x="652" y="219" type="curve"/>
      <point x="652" y="338"/>
      <point x="589" y="440"/>
      <point x="501" y="440" type="curve" smooth="yes"/>
      <point x="441" y="440"/>
      <point x="438" y="368"/>
      <point x="497" y="368" type="curve" smooth="yes"/>
      <point x="566" y="368"/>
      <point x="616" y="320"/>
      <point x="616" y="219" type="curve"/>
      <point x="616" y="130"/>
      <point x="572" y="79"/>
      <point x="497" y="79" type="curve" smooth="yes"/>
      <point x="433" y="79"/>
      <point x="376" y="127"/>
      <point x="365" y="192" type="curve"/>
      <point x="357" y="192" type="line"/>
      <point x="346" y="127"/>
      <point x="289" y="79"/>
      <point x="225" y="79" type="curve" smooth="yes"/>
      <point x="146" y="79"/>
      <point x="106" y="130"/>
      <point x="106" y="229" type="curve" smooth="yes"/>
    </contour>
  </outline>
</glyph>
<glyph name="kaNYA" format="1">
  <advance width="787"/>
  <unicode hex="0C9E"/>
  <outline>
    <contour>
      <point x="539" y="332"/>
      <point x="583" y="368"/>
      <point x="640" y="368" type="curve" smooth="yes"/>
      <point x="693" y="368"/>
      <point x="725" y="338"/>
      <point x="725" y="298" type="curve" smooth="yes"/>
      <point x="725" y="274"/>
      <point x="719" y="250"/>
      <point x="699" y="232" type="curve"/>
      <point x="706" y="215" type="line"/>
      <point x="741" y="236"/>
      <point x="767" y="273"/>
      <point x="767" y="326" type="curve" smooth="yes"/>
      <point x="767" y="395"/>
      <point x="716" y="450"/>
      <point x="640" y="450" type="curve" smooth="yes"/>
      <point x="570" y="450"/>
      <point x="523" y="387"/>
      <point x="514" y="338" type="curve"/>
      <point x="517" y="276" type="line"/>
    </contour>
    <contour>
      <point x="542" y="372"/>
      <point x="498" y="450"/>
      <point x="419" y="450" type="curve" smooth="yes"/>
      <point x="358" y="450"/>
      <point x="299" y="399"/>
      <point x="279" y="326" type="curve"/>
      <point x="277" y="326" type="line"/>
      <point x="257" y="399"/>
      <point x="197" y="450"/>
      <point x="137" y="450" type="curve" smooth="yes"/>
      <point x="71" y="450"/>
      <point x="20" y="395"/>
      <point x="20" y="326" type="curve" smooth="yes"/>
      <point x="20" y="300"/>
      <point x="27" y="277"/>
      <point x="46" y="256" type="curve"/>
      <point x="73" y="274" type="line"/>
      <point x="67" y="281"/>
      <point x="62" y="294"/>
      <point x="62" y="306" type="curve" smooth="yes"/>
      <point x="62" y="339"/>
      <point x="89" y="368"/>
      <point x="140" y="368" type="curve" smooth="yes"/>
      <point x="205" y="368"/>
      <point x="262" y="310"/>
      <point x="274" y="244" type="curve"/>
      <point x="282" y="244" type="line"/>
      <point x="293" y="310"/>
      <point x="350" y="368"/>
      <point x="413" y="368" type="curve" smooth="yes"/>
      <point x="460" y="368"/>
      <point x="500" y="322"/>
      <point x="500" y="237" type="curve"/>
      <point x="500" y="128"/>
      <point x="443" y="79"/>
      <point x="337" y="79" type="curve"/>
      <point x="281" y="79"/>
      <point x="254" y="94"/>
      <point x="254" y="117" type="curve" smooth="yes"/>
      <point x="254" y="135"/>
      <point x="272" y="151"/>
      <point x="317" y="151" type="curve" smooth="yes"/>
      <point x="444" y="151"/>
      <point x="532" y="40"/>
      <point x="532" y="-63" type="curve" smooth="yes"/>
      <point x="532" y="-76"/>
      <point x="542" y="-86"/>
      <point x="553" y="-86" type="curve" smooth="yes"/>
      <point x="564" y="-86"/>
      <point x="574" y="-76"/>
      <point x="574" y="-55" type="curve" smooth="yes"/>
      <point x="574" y="24"/>
      <point x="482" y="192"/>
      <point x="318" y="192" type="curve" smooth="yes"/>
      <point x="234" y="192"/>
      <point x="182" y="146"/>
      <point x="182" y="100" type="curve" smooth="yes"/>
      <point x="182" y="33"/>
      <point x="247" y="-14"/>
      <point x="326" y="-14" type="curve" smooth="yes"/>
      <point x="452" y="-14"/>
      <point x="542" y="92"/>
      <point x="542" y="254" type="curve"/>
    </contour>
  </outline>
</glyph>
<glyph name="knTTA" format="1">
  <advance width="722"/>
  <unicode hex="0C9F"/>
  <outline>
    <contour>
      <point x="176" y="461"/>
      <point x="165" y="487"/>
      <point x="165" y="513" type="curve" smooth="yes"/>
      <point x="165" y="542"/>
      <point x="184" y="570"/>
      <point x="220" y="583" type="curve"/>
      <point x="204" y="602" type="line"/>
      <point x="148" y="591"/>
      <point x="115" y="556"/>
      <point x="115" y="518" type="curve" smooth="yes"/>
      <point x="115" y="479"/>
      <point x="140" y="450"/>
      <point x="189" y="429" type="curve"/>
      <point x="207" y="442" type="line"/>
    </contour>
    <contour>
      <point x="522" y="409" type="line"/>
      <point x="571" y="430"/>
      <point x="596" y="469"/>
      <point x="596" y="509" type="curve" smooth="yes"/>
      <point x="596" y="556"/>
      <point x="563" y="591"/>
      <point x="507" y="602" type="curve"/>
      <point x="491" y="583" type="line"/>
      <point x="527" y="570"/>
      <point x="546" y="542"/>
      <point x="546" y="505" type="curve" smooth="yes"/>
      <point x="546" y="477"/>
      <point x="535" y="441"/>
      <point x="504" y="422" type="curve"/>
    </contour>
    <contour>
      <point x="501" y="404" type="line"/>
      <point x="580" y="366"/>
      <point x="616" y="306"/>
      <point x="616" y="229" type="curve" smooth="yes"/>
      <point x="616" y="130"/>
      <point x="572" y="79"/>
      <point x="497" y="79" type="curve" smooth="yes"/>
      <point x="433" y="79"/>
      <point x="376" y="127"/>
      <point x="365" y="192" type="curve"/>
      <point x="357" y="192" type="line"/>
      <point x="346" y="127"/>
      <point x="289" y="79"/>
      <point x="225" y="79" type="curve" smooth="yes"/>
      <point x="146" y="79"/>
      <point x="106" y="130"/>
      <point x="106" y="229" type="curve" smooth="yes"/>
      <point x="106" y="288"/>
      <point x="121" y="341"/>
      <point x="150" y="370" type="curve"/>
      <point x="148" y="360"/>
      <point x="147" y="349"/>
      <point x="147" y="338" type="curve" smooth="yes"/>
      <point x="147" y="275"/>
      <point x="183" y="244"/>
      <point x="225" y="244" type="curve" smooth="yes"/>
      <point x="271" y="244"/>
      <point x="299" y="290"/>
      <point x="299" y="347" type="curve" smooth="yes"/>
      <point x="299" y="404"/>
      <point x="276" y="450"/>
      <point x="215" y="450" type="curve" smooth="yes"/>
      <point x="134" y="450"/>
      <point x="70" y="345"/>
      <point x="70" y="229" type="curve" smooth="yes"/>
      <point x="70" y="65"/>
      <point x="122" y="-14"/>
      <point x="221" y="-14" type="curve" smooth="yes"/>
      <point x="291" y="-14"/>
      <point x="340" y="37"/>
      <point x="360" y="110" type="curve"/>
      <point x="362" y="110" type="line"/>
      <point x="382" y="37"/>
      <point x="431" y="-14"/>
      <point x="501" y="-14" type="curve" smooth="yes"/>
      <point x="596" y="-14"/>
      <point x="652" y="65"/>
      <point x="652" y="209" type="curve" smooth="yes"/>
      <point x="652" y="349"/>
      <point x="565" y="413"/>
      <point x="504" y="422" type="curve"/>
    </contour>
    <contour>
      <point x="273" y="324"/>
      <point x="257" y="306"/>
      <point x="225" y="306" type="curve" smooth="yes"/>
      <point x="197" y="306"/>
      <point x="173" y="322"/>
      <point x="173" y="362" type="curve" smooth="yes"/>
      <point x="173" y="371"/>
      <point x="174" y="381"/>
      <point x="176" y="390" type="curve"/>
      <point x="186" y="394"/>
      <point x="198" y="397"/>
      <point x="210" y="397" type="curve" smooth="yes"/>
      <point x="252" y="397"/>
      <point x="273" y="381"/>
      <point x="273" y="347" type="curve" smooth="yes"/>
    </contour>
  </outline>
</glyph>
<glyph name="knTTHA" format="1">
  <advance width="514"/>
  <unicode hex="0CA0"/>
  <outline>
    <contour>
      <point x="185" y="259"/>
      <point x="210" y="284"/>
      <point x="242" y="284" type="curve" smooth="yes"/>
      <point x="274" y="284"/>
      <point x="299" y="259"/>
      <point x="299" y="227" type="curve" smooth="yes"/>
      <point x="299" y="195"/>
      <point x="274" y="171"/>
      <point x="242" y="171" type="curve" smooth="yes"/>
      <point x="210" y="171"/>
      <point x="185" y="195"/>
      <point x="185" y="227" type="curve" smooth="yes"/>
    </contour>
    <contour>
      <point x="330" y="375"/>
      <point x="395" y="311"/>
      <point x="395" y="225" type="curve" smooth="yes"/>
      <point x="395" y="138"/>
      <point x="330" y="76"/>
      <point x="242" y="76" type="curve"/>
      <point x="154" y="76"/>
      <point x="89" y="138"/>
      <point x="89" y="225" type="curve" smooth="yes"/>
      <point x="89" y="311"/>
      <point x="154" y="375"/>
      <point x="242" y="375" type="curve"/>
    </contour>
    <contour>
      <point x="371" y="557" type="line"/>
      <point x="395" y="542"/>
      <point x="403" y="520"/>
      <point x="403" y="501" type="curve" smooth="yes"/>
      <point x="403" y="465"/>
      <point x="376" y="440"/>
      <point x="331" y="440" type="curve" smooth="yes"/>
      <point x="42" y="440" type="line"/>
      <point x="42" y="368" type="line"/>
      <point x="184" y="368" type="line"/>
      <point x="242" y="384" type="line"/>
      <point x="298" y="368" type="line"/>
      <point x="331" y="368" type="line" smooth="yes"/>
      <point x="400" y="368"/>
      <point x="449" y="416"/>
      <point x="449" y="476" type="curve" smooth="yes"/>
      <point x="449" y="515"/>
      <point x="429" y="551"/>
      <point x="384" y="575" type="curve"/>
    </contour>
    <contour>
      <point x="206" y="399"/>
      <point x="174" y="388"/>
      <point x="146" y="373" type="curve" smooth="yes"/>
      <point x="82" y="340"/>
      <point x="42" y="272"/>
      <point x="42" y="195" type="curve" smooth="yes"/>
      <point x="42" y="73"/>
      <point x="131" y="-14"/>
      <point x="242" y="-14" type="curve"/>
      <point x="353" y="-14"/>
      <point x="442" y="73"/>
      <point x="442" y="195" type="curve" smooth="yes"/>
      <point x="442" y="272"/>
      <point x="402" y="340"/>
      <point x="338" y="373" type="curve" smooth="yes"/>
      <point x="310" y="388"/>
      <point x="278" y="399"/>
      <point x="242" y="399" type="curve"/>
    </contour>
  </outline>
</glyph>
<glyph name="knDDA" format="1">
  <advance width="657"/>
  <unicode hex="0CA1"/>
  <outline>
    <contour>
      <point x="524" y="557" type="line"/>
      <point x="548" y="542"/>
      <point x="556" y="520"/>
      <point x="556" y="501" type="curve" smooth="yes"/>
      <point x="556" y="465"/>
      <point x="529" y="440"/>
      <point x="484" y="440" type="curve" smooth="yes"/>
      <point x="65" y="440" type="line"/>
      <point x="65" y="368" type="line"/>
      <point x="234" y="368" type="line"/>
      <point x="324" y="378" type="line"/>
      <point x="414" y="368" type="line"/>
      <point x="484" y="368" type="line"/>
      <point x="553" y="368"/>
      <point x="602" y="416"/>
      <point x="602" y="476" type="curve" smooth="yes"/>
      <point x="602" y="515"/>
      <point x="582" y="551"/>
      <point x="537" y="575" type="curve"/>
    </contour>
    <contour>
      <point x="196" y="404"/>
      <point x="65" y="288"/>
      <point x="65" y="128" type="curve"/>
      <point x="65" y="42"/>
      <point x="128" y="-14"/>
      <point x="186" y="-14" type="curve" smooth="yes"/>
      <point x="245" y="-14"/>
      <point x="304" y="37"/>
      <point x="324" y="110" type="curve"/>
      <point x="326" y="110" type="line"/>
      <point x="346" y="37"/>
      <point x="405" y="-14"/>
      <point x="474" y="-14" type="curve" smooth="yes"/>
      <point x="532" y="-14"/>
      <point x="595" y="23"/>
      <point x="595" y="124" type="curve"/>
      <point x="595" y="188"/>
      <point x="542" y="307"/>
      <point x="449" y="307" type="curve"/>
      <point x="396" y="307"/>
      <point x="371" y="272"/>
      <point x="371" y="239" type="curve" smooth="yes"/>
      <point x="371" y="197"/>
      <point x="407" y="159"/>
      <point x="456" y="159" type="curve" smooth="yes"/>
      <point x="500" y="159"/>
      <point x="539" y="186"/>
      <point x="539" y="245" type="curve"/>
      <point x="539" y="335"/>
      <point x="432" y="404"/>
      <point x="324" y="404" type="curve"/>
    </contour>
    <contour>
      <point x="438" y="375"/>
      <point x="515" y="307"/>
      <point x="515" y="258" type="curve" smooth="yes"/>
      <point x="515" y="228"/>
      <point x="491" y="210"/>
      <point x="455" y="210" type="curve"/>
      <point x="423" y="210"/>
      <point x="405" y="226"/>
      <point x="405" y="246" type="curve" smooth="yes"/>
      <point x="405" y="265"/>
      <point x="424" y="282"/>
      <point x="455" y="282" type="curve" smooth="yes"/>
      <point x="508" y="282"/>
      <point x="550" y="219"/>
      <point x="551" y="158" type="curve"/>
      <point x="551" y="107"/>
      <point x="513" y="79"/>
      <point x="461" y="79" type="curve" smooth="yes"/>
      <point x="397" y="79"/>
      <point x="340" y="127"/>
      <point x="329" y="192" type="curve"/>
      <point x="321" y="192" type="line"/>
      <point x="309" y="126"/>
      <point x="252" y="79"/>
      <point x="189" y="79" type="curve" smooth="yes"/>
      <point x="143" y="79"/>
      <point x="109" y="106"/>
      <point x="109" y="166" type="curve"/>
      <point x="109" y="250"/>
      <point x="199" y="375"/>
      <point x="324" y="375" type="curve"/>
    </contour>
  </outline>
</glyph>
<glyph name="knNNA" format="1">
  <advance width="717"/>
  <unicode hex="0CA3"/>
  <outline>
    <contour>
      <point x="588" y="-14"/>
      <point x="652" y="83"/>
      <point x="652" y="203" type="curve" smooth="yes"/>
      <point x="652" y="339"/>
      <point x="583" y="450"/>
      <point x="477" y="450" type="curve" smooth="yes"/>
      <point x="402" y="450"/>
      <point x="343" y="399"/>
      <point x="323" y="326" type="curve"/>
      <point x="321" y="326" type="line"/>
      <point x="301" y="399"/>
      <point x="247" y="450"/>
      <point x="181" y="450" type="curve" smooth="yes"/>
      <point x="120" y="450"/>
      <point x="65" y="399"/>
      <point x="65" y="319" type="curve" smooth="yes"/>
      <point x="65" y="267"/>
      <point x="96" y="210"/>
      <point x="137" y="203" type="curve"/>
      <point x="101" y="184"/>
      <point x="65" y="144"/>
      <point x="65" y="89" type="curve" smooth="yes"/>
      <point x="65" y="33"/>
      <point x="101" y="-14"/>
      <point x="163" y="-14" type="curve" smooth="yes"/>
      <point x="234" y="-14"/>
      <point x="267" y="71"/>
      <point x="269" y="119" type="curve"/>
      <point x="253" y="135" type="line"/>
      <point x="234" y="101"/>
      <point x="207" y="79"/>
      <point x="168" y="79" type="curve" smooth="yes"/>
      <point x="130" y="79"/>
      <point x="111" y="100"/>
      <point x="111" y="127" type="curve" smooth="yes"/>
      <point x="111" y="160"/>
      <point x="148" y="187"/>
      <point x="220" y="199" type="curve"/>
      <point x="220" y="207" type="line"/>
      <point x="158" y="218"/>
      <point x="111" y="248"/>
      <point x="111" y="304" type="curve" smooth="yes"/>
      <point x="111" y="339"/>
      <point x="137" y="368"/>
      <point x="188" y="368" type="curve" smooth="yes"/>
      <point x="249" y="368"/>
      <point x="306" y="310"/>
      <point x="318" y="244" type="curve"/>
      <point x="326" y="244" type="line"/>
      <point x="337" y="309"/>
      <point x="394" y="368"/>
      <point x="467" y="368" type="curve" smooth="yes"/>
      <point x="556" y="368"/>
      <point x="611" y="298"/>
      <point x="611" y="213" type="curve" smooth="yes"/>
      <point x="611" y="125"/>
      <point x="558" y="79"/>
      <point x="493" y="79" type="curve"/>
      <point x="437" y="79"/>
      <point x="402" y="107"/>
      <point x="402" y="142" type="curve" smooth="yes"/>
      <point x="402" y="175"/>
      <point x="425" y="196"/>
      <point x="457" y="196" type="curve" smooth="yes"/>
      <point x="483" y="196"/>
      <point x="505" y="187"/>
      <point x="514" y="166" type="curve"/>
      <point x="528" y="179" type="line"/>
      <point x="517" y="216"/>
      <point x="496" y="248"/>
      <point x="454" y="248" type="curve" smooth="yes"/>
      <point x="402" y="248"/>
      <point x="365" y="200"/>
      <point x="365" y="123" type="curve" smooth="yes"/>
      <point x="365" y="47"/>
      <point x="411" y="-14"/>
      <point x="497" y="-14" type="curve"/>
    </contour>
  </outline>
</glyph>
<glyph name="knTHA" format="1">
  <advance width="624"/>
  <unicode hex="0CA5"/>
  <outline>
    <contour>
      <point x="299" y="38" type="line"/>
      <point x="289" y="-31"/>
      <point x="251" y="-80"/>
      <point x="251" y="-116" type="curve" smooth="yes"/>
      <point x="251" y="-158"/>
      <point x="284" y="-176"/>
      <point x="307" y="-176" type="curve" smooth="yes"/>
      <point x="328" y="-176"/>
      <point x="363" y="-162"/>
      <point x="363" y="-116" type="curve" smooth="yes"/>
      <point x="363" y="-80"/>
      <point x="326" y="-31"/>
      <point x="315" y="38" type="curve"/>
    </contour>
    <contour>
      <point x="279" y="326"/>
      <point x="256" y="303"/>
      <point x="256" y="274" type="curve" smooth="yes"/>
      <point x="256" y="245"/>
      <point x="279" y="223"/>
      <point x="307" y="223" type="curve" smooth="yes"/>
      <point x="336" y="223"/>
      <point x="359" y="245"/>
      <point x="359" y="274" type="curve" smooth="yes"/>
      <point x="359" y="303"/>
      <point x="336" y="326"/>
      <point x="307" y="326" type="curve" smooth="yes"/>
    </contour>
    <contour>
      <point x="188" y="404"/>
      <point x="55" y="295"/>
      <point x="55" y="139" type="curve" smooth="yes"/>
      <point x="55" y="29"/>
      <point x="110" y="-14"/>
      <point x="168" y="-14" type="curve" smooth="yes"/>
      <point x="227" y="-14"/>
      <point x="286" y="37"/>
      <point x="306" y="110" type="curve"/>
      <point x="308" y="110" type="line"/>
      <point x="328" y="37"/>
      <point x="387" y="-14"/>
      <point x="446" y="-14" type="curve" smooth="yes"/>
      <point x="504" y="-14"/>
      <point x="559" y="29"/>
      <point x="559" y="139" type="curve" smooth="yes"/>
      <point x="559" y="295"/>
      <point x="426" y="404"/>
      <point x="307" y="404" type="curve"/>
    </contour>
    <contour>
      <point x="422" y="375"/>
      <point x="515" y="261"/>
      <point x="515" y="167" type="curve" smooth="yes"/>
      <point x="515" y="108"/>
      <point x="487" y="79"/>
      <point x="437" y="79" type="curve" smooth="yes"/>
      <point x="380" y="79"/>
      <point x="323" y="126"/>
      <point x="311" y="192" type="curve" smooth="yes"/>
      <point x="303" y="192" type="line"/>
      <point x="291" y="126"/>
      <point x="234" y="79"/>
      <point x="177" y="79" type="curve" smooth="yes"/>
      <point x="127" y="79"/>
      <point x="99" y="108"/>
      <point x="99" y="167" type="curve" smooth="yes"/>
      <point x="99" y="261"/>
      <point x="192" y="375"/>
      <point x="307" y="375" type="curve"/>
    </contour>
    <contour>
      <point x="481" y="557" type="line"/>
      <point x="505" y="542"/>
      <point x="513" y="520"/>
      <point x="513" y="501" type="curve" smooth="yes"/>
      <point x="513" y="465"/>
      <point x="486" y="440"/>
      <point x="441" y="440" type="curve" smooth="yes"/>
      <point x="55" y="440" type="line"/>
      <point x="55" y="368" type="line"/>
      <point x="216" y="368" type="line"/>
      <point x="306" y="378" type="line"/>
      <point x="396" y="368" type="line"/>
      <point x="441" y="368" type="line"/>
      <point x="510" y="368"/>
      <point x="559" y="416"/>
      <point x="559" y="476" type="curve" smooth="yes"/>
      <point x="559" y="515"/>
      <point x="539" y="551"/>
      <point x="494" y="575" type="curve"/>
    </contour>
  </outline>
</glyph>
<glyph name="knNA" format="1">
  <advance width="583"/>
  <unicode hex="0CA8"/>
  <outline>
    <contour>
      <point x="384" y="368" type="line" smooth="yes"/>
      <point x="453" y="368"/>
      <point x="502" y="416"/>
      <point x="502" y="476" type="curve" smooth="yes"/>
      <point x="502" y="515"/>
      <point x="482" y="551"/>
      <point x="437" y="575" type="curve"/>
      <point x="424" y="557" type="line"/>
      <point x="448" y="542"/>
      <point x="456" y="520"/>
      <point x="456" y="501" type="curve" smooth="yes"/>
      <point x="456" y="465"/>
      <point x="429" y="440"/>
      <point x="384" y="440" type="curve" smooth="yes"/>
      <point x="75" y="440" type="line"/>
      <point x="75" y="368" type="line"/>
      <point x="281" y="368" type="line"/>
      <point x="388" y="338"/>
      <point x="467" y="277"/>
      <point x="467" y="182" type="curve" smooth="yes"/>
      <point x="467" y="125"/>
      <point x="435" y="79"/>
      <point x="394" y="79" type="curve" smooth="yes"/>
      <point x="268" y="79"/>
      <point x="314" y="254"/>
      <point x="188" y="254" type="curve" smooth="yes"/>
      <point x="126" y="254"/>
      <point x="75" y="194"/>
      <point x="75" y="120" type="curve" smooth="yes"/>
      <point x="75" y="45"/>
      <point x="110" y="-22"/>
      <point x="168" y="-55" type="curve" smooth="yes"/>
      <point x="188" y="-67"/>
      <point x="214" y="-59"/>
      <point x="214" y="-39" type="curve" smooth="yes"/>
      <point x="214" y="-19"/>
      <point x="200" y="-1"/>
      <point x="178" y="7" type="curve" smooth="yes"/>
      <point x="134" y="22"/>
      <point x="106" y="55"/>
      <point x="106" y="89" type="curve" smooth="yes"/>
      <point x="106" y="140"/>
      <point x="143" y="182"/>
      <point x="188" y="182" type="curve" smooth="yes"/>
      <point x="325" y="182"/>
      <point x="249" y="-14"/>
      <point x="394" y="-14" type="curve" smooth="yes"/>
      <point x="463" y="-14"/>
      <point x="518" y="61"/>
      <point x="518" y="151" type="curve" smooth="yes"/>
      <point x="518" y="245"/>
      <point x="466" y="322"/>
      <point x="358" y="368" type="curve"/>
    </contour>
  </outline>
</glyph>
<glyph name="KNBA" format="1">
  <advance width="679"/>
  <unicode hex="0CAC"/>
  <outline>
    <contour>
      <point x="619" y="339"/>
      <point x="520" y="445"/>
      <point x="445" y="445" type="curve" smooth="yes"/>
      <point x="414" y="445"/>
      <point x="397" y="428"/>
      <point x="397" y="408" type="curve" smooth="yes"/>
      <point x="397" y="393"/>
      <point x="406" y="380"/>
      <point x="418" y="374" type="curve" smooth="yes"/>
      <point x="431" y="367"/>
      <point x="451" y="371"/>
      <point x="479" y="365" type="curve" smooth="yes"/>
      <point x="532" y="354"/>
      <point x="583" y="283"/>
      <point x="583" y="204" type="curve" smooth="yes"/>
      <point x="583" y="144"/>
      <point x="549" y="79"/>
      <point x="461" y="79" type="curve" smooth="yes"/>
      <point x="401" y="79"/>
      <point x="343" y="127"/>
      <point x="332" y="192" type="curve"/>
      <point x="324" y="192" type="line"/>
      <point x="312" y="126"/>
      <point x="255" y="79"/>
      <point x="192" y="79" type="curve" smooth="yes"/>
      <point x="146" y="79"/>
      <point x="122" y="99"/>
      <point x="122" y="136" type="curve"/>
      <point x="92" y="136" type="line"/>
      <point x="78" y="109" type="line"/>
      <point x="78" y="33"/>
      <point x="131" y="-14"/>
      <point x="189" y="-14" type="curve" smooth="yes"/>
      <point x="248" y="-14"/>
      <point x="307" y="37"/>
      <point x="327" y="110" type="curve"/>
      <point x="329" y="110" type="line"/>
      <point x="349" y="37"/>
      <point x="408" y="-14"/>
      <point x="471" y="-14" type="curve" smooth="yes"/>
      <point x="563" y="-14"/>
      <point x="619" y="66"/>
      <point x="619" y="193" type="curve" smooth="yes"/>
    </contour>
    <contour>
      <point x="122" y="163"/>
      <point x="148" y="189"/>
      <point x="176" y="218" type="curve" smooth="yes"/>
      <point x="211" y="254"/>
      <point x="250" y="294"/>
      <point x="250" y="345" type="curve" smooth="yes"/>
      <point x="250" y="410"/>
      <point x="199" y="450"/>
      <point x="142" y="450" type="curve" smooth="yes"/>
      <point x="92" y="450"/>
      <point x="40" y="420"/>
      <point x="40" y="360" type="curve" smooth="yes"/>
      <point x="40" y="332"/>
      <point x="50" y="304"/>
      <point x="68" y="285" type="curve"/>
      <point x="95" y="303" type="line"/>
      <point x="88" y="316"/>
      <point x="86" y="326"/>
      <point x="86" y="336" type="curve" smooth="yes"/>
      <point x="86" y="368"/>
      <point x="108" y="391"/>
      <point x="142" y="391" type="curve" smooth="yes"/>
      <point x="174" y="391"/>
      <point x="204" y="370"/>
      <point x="204" y="333" type="curve" smooth="yes"/>
      <point x="204" y="297"/>
      <point x="177" y="269"/>
      <point x="149" y="240" type="curve" smooth="yes"/>
      <point x="115" y="205"/>
      <point x="78" y="168"/>
      <point x="78" y="109" type="curve"/>
      <point x="115" y="109" type="line"/>
      <point x="122" y="136" type="line"/>
    </contour>
  </outline>
</glyph>
<glyph name="knLA" format="1">
  <advance width="624"/>
  <unicode hex="0CB2"/>
  <outline>
    <contour>
      <point x="262" y="324"/>
      <point x="246" y="306"/>
      <point x="214" y="306" type="curve" smooth="yes"/>
      <point x="186" y="306"/>
      <point x="162" y="322"/>
      <point x="162" y="362" type="curve" smooth="yes"/>
      <point x="162" y="371"/>
      <point x="163" y="381"/>
      <point x="165" y="390" type="curve"/>
      <point x="175" y="394"/>
      <point x="187" y="397"/>
      <point x="199" y="397" type="curve" smooth="yes"/>
      <point x="241" y="397"/>
      <point x="262" y="381"/>
      <point x="262" y="347" type="curve" smooth="yes"/>
    </contour>
    <contour>
      <point x="466" y="-14"/>
      <point x="574" y="108"/>
      <point x="574" y="244" type="curve"/>
      <point x="574" y="360"/>
      <point x="497" y="445"/>
      <point x="442" y="445" type="curve" smooth="yes"/>
      <point x="411" y="445"/>
      <point x="394" y="428"/>
      <point x="394" y="408" type="curve" smooth="yes"/>
      <point x="394" y="391"/>
      <point x="404" y="377"/>
      <point x="418" y="373" type="curve" smooth="yes"/>
      <point x="438" y="367"/>
      <point x="456" y="371"/>
      <point x="477" y="364" type="curve" smooth="yes"/>
      <point x="509" y="353"/>
      <point x="533" y="316"/>
      <point x="533" y="253" type="curve"/>
      <point x="533" y="152"/>
      <point x="429" y="79"/>
      <point x="317" y="79" type="curve"/>
      <point x="203" y="79"/>
      <point x="101" y="153"/>
      <point x="101" y="254" type="curve" smooth="yes"/>
      <point x="101" y="306"/>
      <point x="115" y="346"/>
      <point x="139" y="371" type="curve"/>
      <point x="137" y="361"/>
      <point x="136" y="350"/>
      <point x="136" y="338" type="curve" smooth="yes"/>
      <point x="136" y="275"/>
      <point x="172" y="244"/>
      <point x="214" y="244" type="curve" smooth="yes"/>
      <point x="260" y="244"/>
      <point x="288" y="290"/>
      <point x="288" y="347" type="curve" smooth="yes"/>
      <point x="288" y="404"/>
      <point x="265" y="450"/>
      <point x="204" y="450" type="curve" smooth="yes"/>
      <point x="129" y="450"/>
      <point x="60" y="358"/>
      <point x="60" y="244" type="curve" smooth="yes"/>
      <point x="60" y="88"/>
      <point x="168" y="-14"/>
      <point x="317" y="-14" type="curve"/>
    </contour>
  </outline>
</glyph>
<glyph name="knLLA" format="1">
  <advance width="536"/>
  <unicode hex="0CB3"/>
  <outline>
    <contour>
      <point x="76" y="381"/>
      <point x="116" y="397"/>
      <point x="184" y="397" type="curve" smooth="yes"/>
      <point x="223" y="397"/>
      <point x="237" y="385"/>
      <point x="237" y="371" type="curve" smooth="yes"/>
      <point x="237" y="357"/>
      <point x="218" y="346"/>
      <point x="187" y="346" type="curve" smooth="yes"/>
      <point x="151" y="346"/>
      <point x="137" y="362"/>
      <point x="137" y="382" type="curve" smooth="yes"/>
      <point x="137" y="402"/>
      <point x="144" y="408"/>
      <point x="150" y="413" type="curve"/>
      <point x="129" y="417" type="line"/>
      <point x="118" y="398"/>
      <point x="111" y="390"/>
      <point x="111" y="358" type="curve" smooth="yes"/>
      <point x="111" y="315"/>
      <point x="137" y="284"/>
      <point x="179" y="284" type="curve" smooth="yes"/>
      <point x="235" y="284"/>
      <point x="263" y="323"/>
      <point x="263" y="371" type="curve" smooth="yes"/>
      <point x="263" y="417"/>
      <point x="240" y="450"/>
      <point x="179" y="450" type="curve" smooth="yes"/>
      <point x="104" y="450"/>
      <point x="35" y="398"/>
      <point x="35" y="314" type="curve"/>
      <point x="35" y="117"/>
      <point x="309" y="196"/>
      <point x="309" y="108" type="curve"/>
      <point x="309" y="88"/>
      <point x="299" y="77"/>
      <point x="282" y="77" type="curve"/>
      <point x="264" y="77"/>
      <point x="254" y="87"/>
      <point x="254" y="104" type="curve"/>
      <point x="254" y="175"/>
      <point x="488" y="177"/>
      <point x="488" y="306" type="curve" smooth="yes"/>
      <point x="488" y="374"/>
      <point x="431" y="422"/>
      <point x="345" y="422" type="curve"/>
      <point x="345" y="390" type="line"/>
      <point x="415" y="390"/>
      <point x="454" y="366"/>
      <point x="454" y="306" type="curve" smooth="yes"/>
      <point x="454" y="191"/>
      <point x="204" y="203"/>
      <point x="204" y="73" type="curve"/>
      <point x="204" y="23"/>
      <point x="234" y="-14"/>
      <point x="287" y="-14" type="curve"/>
      <point x="345" y="-14"/>
      <point x="375" y="28"/>
      <point x="375" y="83" type="curve" smooth="yes"/>
      <point x="375" y="277"/>
      <point x="76" y="175"/>
      <point x="76" y="324" type="curve"/>
    </contour>
    <contour>
      <point x="426" y="557" type="line"/>
      <point x="450" y="542"/>
      <point x="458" y="520"/>
      <point x="458" y="501" type="curve" smooth="yes"/>
      <point x="458" y="465"/>
      <point x="431" y="440"/>
      <point x="386" y="440" type="curve" smooth="yes"/>
      <point x="319" y="440" type="line"/>
      <point x="319" y="368" type="line"/>
      <point x="408" y="368" type="line" smooth="yes"/>
      <point x="477" y="368"/>
      <point x="504" y="416"/>
      <point x="504" y="476" type="curve" smooth="yes"/>
      <point x="504" y="515"/>
      <point x="484" y="551"/>
      <point x="439" y="575" type="curve"/>
    </contour>
  </outline>
</glyph>
<glyph name="knSSA" format="1">
  <advance width="649"/>
  <unicode hex="0CB7"/>
  <outline>
    <contour>
      <point x="498" y="339"/>
      <point x="483" y="324"/>
      <point x="483" y="304" type="curve" smooth="yes"/>
      <point x="483" y="263"/>
      <point x="551" y="293"/>
      <point x="551" y="174" type="curve" smooth="yes"/>
      <point x="551" y="121"/>
      <point x="526" y="79"/>
      <point x="466" y="79" type="curve"/>
      <point x="402" y="79"/>
      <point x="345" y="127"/>
      <point x="334" y="192" type="curve"/>
      <point x="326" y="192" type="line"/>
      <point x="314" y="126"/>
      <point x="256" y="79"/>
      <point x="190" y="79" type="curve"/>
      <point x="139" y="79"/>
      <point x="113" y="108"/>
      <point x="113" y="143" type="curve" smooth="yes"/>
      <point x="113" y="175"/>
      <point x="136" y="196"/>
      <point x="168" y="196" type="curve" smooth="yes"/>
      <point x="194" y="196"/>
      <point x="216" y="187"/>
      <point x="225" y="166" type="curve"/>
      <point x="239" y="179" type="line"/>
      <point x="228" y="216"/>
      <point x="207" y="248"/>
      <point x="165" y="248" type="curve" smooth="yes"/>
      <point x="113" y="248"/>
      <point x="76" y="200"/>
      <point x="76" y="123" type="curve" smooth="yes"/>
      <point x="76" y="47"/>
      <point x="116" y="-14"/>
      <point x="186" y="-14" type="curve"/>
      <point x="249" y="-14"/>
      <point x="309" y="37"/>
      <point x="329" y="110" type="curve"/>
      <point x="331" y="110" type="line"/>
      <point x="351" y="37"/>
      <point x="410" y="-14"/>
      <point x="469" y="-14" type="curve"/>
      <point x="552" y="-14"/>
      <point x="584" y="71"/>
      <point x="584" y="154" type="curve" smooth="yes"/>
      <point x="584" y="234"/>
      <point x="565" y="339"/>
      <point x="519" y="339" type="curve" smooth="yes"/>
    </contour>
    <contour>
      <point x="386" y="223" type="line"/>
      <point x="508" y="65" type="line" smooth="yes"/>
      <point x="551" y="8"/>
      <point x="560" y="-20"/>
      <point x="578" y="-43" type="curve" smooth="yes"/>
      <point x="593" y="-62"/>
      <point x="615" y="-69"/>
      <point x="635" y="-53" type="curve"/>
      <point x="654" y="-37"/>
      <point x="653" y="-13"/>
      <point x="637" y="5" type="curve" smooth="yes"/>
      <point x="619" y="27"/>
      <point x="594" y="42"/>
      <point x="547" y="98" type="curve" smooth="yes"/>
      <point x="417" y="249" type="line"/>
    </contour>
    <contour>
      <point x="304" y="347"/>
      <point x="281" y="324"/>
      <point x="281" y="296" type="curve" smooth="yes"/>
      <point x="281" y="267"/>
      <point x="304" y="244"/>
      <point x="333" y="244" type="curve" smooth="yes"/>
      <point x="362" y="244"/>
      <point x="384" y="267"/>
      <point x="384" y="296" type="curve" smooth="yes"/>
      <point x="384" y="324"/>
      <point x="362" y="347"/>
      <point x="333" y="347" type="curve" smooth="yes"/>
    </contour>
    <contour>
      <point x="492" y="558" type="line"/>
      <point x="516" y="539"/>
      <point x="528" y="518"/>
      <point x="528" y="502" type="curve" smooth="yes"/>
      <point x="528" y="468"/>
      <point x="506" y="440"/>
      <point x="477" y="440" type="curve" smooth="yes"/>
      <point x="75" y="440" type="line"/>
      <point x="75" y="368" type="line"/>
      <point x="477" y="368" type="line" smooth="yes"/>
      <point x="531" y="368"/>
      <point x="575" y="414"/>
      <point x="575" y="471" type="curve" smooth="yes"/>
      <point x="575" y="512"/>
      <point x="551" y="552"/>
      <point x="513" y="574" type="curve"/>
    </contour>
  </outline>
</glyph>
<glyph name="knSA" format="1">
  <advance width="599"/>
  <unicode hex="0CB8"/>
  <outline>
    <contour>
      <point x="45" y="101"/>
      <point x="104" y="213"/>
      <point x="209" y="213" type="curve" smooth="yes"/>
      <point x="329" y="213"/>
      <point x="331" y="79"/>
      <point x="434" y="79" type="curve" smooth="yes"/>
      <point x="508" y="79"/>
      <point x="516" y="241"/>
      <point x="443" y="311" type="curve"/>
      <point x="465" y="326" type="line"/>
      <point x="571" y="224"/>
      <point x="576" y="-14"/>
      <point x="445" y="-14" type="curve" smooth="yes"/>
      <point x="357" y="-14"/>
      <point x="363" y="131"/>
      <point x="209" y="131" type="curve" smooth="yes"/>
      <point x="120" y="131"/>
      <point x="86" y="66"/>
      <point x="66" y="-14" type="curve"/>
      <point x="35" y="-4" type="line"/>
    </contour>
    <contour>
      <point x="466" y="557" type="line"/>
      <point x="490" y="542"/>
      <point x="498" y="520"/>
      <point x="498" y="501" type="curve" smooth="yes"/>
      <point x="498" y="465"/>
      <point x="471" y="440"/>
      <point x="426" y="440" type="curve" smooth="yes"/>
      <point x="37" y="440" type="line"/>
      <point x="37" y="368" type="line"/>
      <point x="426" y="368" type="line"/>
      <point x="495" y="368"/>
      <point x="544" y="416"/>
      <point x="544" y="476" type="curve" smooth="yes"/>
      <point x="544" y="515"/>
      <point x="524" y="551"/>
      <point x="479" y="575" type="curve"/>
    </contour>
    <contour>
      <point x="267" y="249"/>
      <point x="286" y="271"/>
      <point x="286" y="300" type="curve" smooth="yes"/>
      <point x="286" y="329"/>
      <point x="267" y="350"/>
      <point x="236" y="350" type="curve" smooth="yes"/>
      <point x="204" y="350"/>
      <point x="185" y="329"/>
      <point x="185" y="300" type="curve" smooth="yes"/>
      <point x="185" y="271"/>
      <point x="204" y="249"/>
      <point x="236" y="249" type="curve" smooth="yes"/>
    </contour>
  </outline>
</glyph>
<glyph name="knHA" format="1">
  <advance width="642"/>
  <unicode hex="0CB9"/>
  <outline>
    <contour>
      <point x="494" y="557" type="line"/>
      <point x="518" y="542"/>
      <point x="526" y="520"/>
      <point x="526" y="501" type="curve" smooth="yes"/>
      <point x="526" y="465"/>
      <point x="499" y="440"/>
      <point x="454" y="440" type="curve" smooth="yes"/>
      <point x="65" y="440" type="line"/>
      <point x="65" y="368" type="line"/>
      <point x="454" y="368" type="line"/>
      <point x="523" y="368"/>
      <point x="572" y="416"/>
      <point x="572" y="476" type="curve" smooth="yes"/>
      <point x="572" y="515"/>
      <point x="552" y="551"/>
      <point x="507" y="575" type="curve"/>
    </contour>
    <contour>
      <point x="342" y="217"/>
      <point x="383" y="254"/>
      <point x="440" y="254" type="curve"/>
      <point x="502" y="254"/>
      <point x="538" y="212"/>
      <point x="538" y="165" type="curve"/>
      <point x="538" y="109"/>
      <point x="499" y="73"/>
      <point x="440" y="73" type="curve"/>
      <point x="383" y="73"/>
      <point x="342" y="104"/>
      <point x="342" y="164" type="curve" smooth="yes"/>
      <point x="342" y="237" type="line" smooth="yes"/>
      <point x="342" y="336"/>
      <point x="303" y="390"/>
      <point x="211" y="416" type="curve"/>
      <point x="209" y="378" type="line"/>
      <point x="278" y="357"/>
      <point x="299" y="321"/>
      <point x="304" y="227" type="curve" smooth="yes"/>
      <point x="308" y="151" type="line" smooth="yes"/>
      <point x="312" y="78"/>
      <point x="356" y="-14"/>
      <point x="445" y="-14" type="curve"/>
      <point x="531" y="-14"/>
      <point x="582" y="58"/>
      <point x="582" y="149" type="curve"/>
      <point x="582" y="235"/>
      <point x="525" y="294"/>
      <point x="440" y="294" type="curve"/>
      <point x="357" y="294"/>
      <point x="308" y="223"/>
      <point x="308" y="161" type="curve"/>
      <point x="342" y="164" type="line"/>
    </contour>
    <contour>
      <point x="341" y="161" type="line"/>
      <point x="341" y="223"/>
      <point x="292" y="294"/>
      <point x="209" y="294" type="curve"/>
      <point x="124" y="294"/>
      <point x="67" y="235"/>
      <point x="67" y="149" type="curve"/>
      <point x="67" y="58"/>
      <point x="118" y="-14"/>
      <point x="204" y="-14" type="curve"/>
      <point x="293" y="-14"/>
      <point x="337" y="78"/>
      <point x="341" y="151" type="curve" smooth="yes"/>
      <point x="345" y="227" type="line"/>
      <point x="307" y="237" type="line"/>
      <point x="307" y="164" type="line" smooth="yes"/>
      <point x="307" y="109"/>
      <point x="271" y="73"/>
      <point x="209" y="73" type="curve"/>
      <point x="150" y="73"/>
      <point x="111" y="109"/>
      <point x="111" y="167" type="curve"/>
      <point x="111" y="212"/>
      <point x="144" y="254"/>
      <point x="209" y="254" type="curve"/>
      <point x="266" y="254"/>
      <point x="307" y="222"/>
      <point x="307" y="164" type="curve"/>
    </contour>
  </outline>
</glyph>
<glyph name="knmAA" format="1">
  <advance width="365"/>
  <unicode hex="0CBE"/>
  <outline>
    <contour>
      <point x="201" y="368"/>
      <point x="291" y="316"/>
      <point x="291" y="195" type="curve" smooth="yes"/>
      <point x="291" y="112"/>
      <point x="248" y="55"/>
      <point x="171" y="55" type="curve" smooth="yes"/>
      <point x="106" y="55"/>
      <point x="69" y="96"/>
      <point x="69" y="145" type="curve"/>
      <point x="69" y="182"/>
      <point x="77" y="204"/>
      <point x="88" y="204" type="curve" smooth="yes"/>
      <point x="92" y="204"/>
      <point x="93" y="200"/>
      <point x="93" y="196" type="curve" smooth="yes"/>
      <point x="93" y="164"/>
      <point x="112" y="142"/>
      <point x="141" y="142" type="curve" smooth="yes"/>
      <point x="171" y="142"/>
      <point x="193" y="167"/>
      <point x="193" y="198" type="curve" smooth="yes"/>
      <point x="193" y="226"/>
      <point x="171" y="258"/>
      <point x="125" y="258" type="curve" smooth="yes"/>
      <point x="56" y="258"/>
      <point x="24" y="201"/>
      <point x="24" y="133" type="curve"/>
      <point x="24" y="47"/>
      <point x="79" y="-14"/>
      <point x="154" y="-14" type="curve" smooth="yes"/>
      <point x="250" y="-14"/>
      <point x="325" y="70"/>
      <point x="325" y="205" type="curve" smooth="yes"/>
      <point x="325" y="347"/>
      <point x="218" y="440"/>
      <point x="48" y="440" type="curve"/>
      <point x="-200" y="440" type="line"/>
      <point x="-200" y="368" type="line"/>
      <point x="66" y="368" type="line"/>
    </contour>
  </outline>
</glyph>
<glyph name="knmI" format="1">
  <advance width="324"/>
  <unicode hex="0CBF"/>
  <outline>
    <contour>
      <point x="101" y="276"/>
      <point x="201" y="299"/>
      <point x="201" y="387" type="curve"/>
      <point x="201" y="465"/>
      <point x="128" y="508"/>
      <point x="81" y="508" type="curve" smooth="yes"/>
      <point x="43" y="508"/>
      <point x="25" y="485"/>
      <point x="25" y="457" type="curve" smooth="yes"/>
      <point x="25" y="425"/>
      <point x="52" y="396"/>
      <point x="87" y="396" type="curve" smooth="yes"/>
      <point x="126" y="396"/>
      <point x="133" y="420"/>
      <point x="133" y="451" type="curve" smooth="yes"/>
      <point x="133" y="485"/>
      <point x="112" y="509"/>
      <point x="86" y="531" type="curve"/>
      <point x="134" y="528" type="line"/>
      <point x="157" y="508"/>
      <point x="173" y="484"/>
      <point x="173" y="444" type="curve"/>
      <point x="173" y="404"/>
      <point x="154" y="366"/>
      <point x="103" y="366" type="curve" smooth="yes"/>
      <point x="47" y="366"/>
      <point x="0" y="414"/>
      <point x="0" y="474" type="curve" smooth="yes"/>
      <point x="0" y="524"/>
      <point x="31" y="560"/>
      <point x="84" y="560" type="curve" smooth="yes"/>
      <point x="164" y="560"/>
      <point x="224" y="467"/>
      <point x="224" y="388" type="curve" smooth="yes"/>
      <point x="224" y="301"/>
      <point x="184" y="237"/>
      <point x="59" y="230" type="curve"/>
      <point x="35" y="276" type="line"/>
    </contour>
  </outline>
</glyph>
<glyph name="knmvR" format="1">
  <advance width="75"/>
  <unicode hex="0CC3"/>
  <outline>
    <contour>
      <point x="-50" y="-112"/>
      <point x="-55" y="-129"/>
      <point x="-55" y="-142" type="curve" smooth="yes"/>
      <point x="-55" y="-161"/>
      <point x="-44" y="-174"/>
      <point x="-28" y="-174" type="curve" smooth="yes"/>
      <point x="-12" y="-174"/>
      <point x="-2" y="-160"/>
      <point x="-2" y="-143" type="curve" smooth="yes"/>
      <point x="-2" y="-126"/>
      <point x="-15" y="-114"/>
      <point x="-32" y="-114" type="curve" smooth="yes"/>
      <point x="-54" y="-114"/>
      <point x="-83" y="-135"/>
      <point x="-83" y="-179" type="curve" smooth="yes"/>
      <point x="-83" y="-239"/>
      <point x="-40" y="-269"/>
      <point x="14" y="-269" type="curve" smooth="yes"/>
      <point x="68" y="-269"/>
      <point x="105" y="-222"/>
      <point x="105" y="-170" type="curve" smooth="yes"/>
      <point x="105" y="-108"/>
      <point x="80" y="-62"/>
      <point x="49" y="-30" type="curve" smooth="yes"/>
      <point x="22" y="-3"/>
      <point x="11" y="13"/>
      <point x="11" y="27" type="curve" smooth="yes"/>
      <point x="11" y="37"/>
      <point x="18" y="43"/>
      <point x="27" y="43" type="curve" smooth="yes"/>
      <point x="35" y="43"/>
      <point x="42" y="39"/>
      <point x="53" y="24" type="curve" smooth="yes"/>
      <point x="88" y="-24"/>
      <point x="125" y="-98"/>
      <point x="125" y="-171" type="curve" smooth="yes"/>
      <point x="125" y="-243"/>
      <point x="81" y="-303"/>
      <point x="15" y="-303" type="curve" smooth="yes"/>
      <point x="-59" y="-303"/>
      <point x="-100" y="-239"/>
      <point x="-100" y="-188" type="curve" smooth="yes"/>
      <point x="-100" y="-117"/>
      <point x="-65" y="-89"/>
      <point x="-36" y="-89" type="curve" smooth="yes"/>
      <point x="-13" y="-89"/>
      <point x="11" y="-103"/>
      <point x="11" y="-145" type="curve" smooth="yes"/>
      <point x="11" y="-175"/>
      <point x="0" y="-198"/>
      <point x="-28" y="-198" type="curve" smooth="yes"/>
      <point x="-52" y="-198"/>
      <point x="-69" y="-176"/>
      <point x="-69" y="-151" type="curve" smooth="yes"/>
      <point x="-69" y="-129"/>
      <point x="-66" y="-116"/>
      <point x="-58" y="-102" type="curve"/>
      <point x="-38" y="-101" type="line"/>
    </contour>
  </outline>
</glyph>
<glyph name="knmvRR" format="1">
  <advance width="273"/>
  <unicode hex="0CC4"/>
  <outline>
    <contour>
      <point x="8" y="35" type="line"/>
      <point x="8" y="23" type="line"/>
      <point x="48" y="-20"/>
      <point x="101" y="-84"/>
      <point x="101" y="-170" type="curve" smooth="yes"/>
      <point x="101" y="-222"/>
      <point x="68" y="-269"/>
      <point x="14" y="-269" type="curve" smooth="yes"/>
      <point x="-40" y="-269"/>
      <point x="-83" y="-239"/>
      <point x="-83" y="-179" type="curve" smooth="yes"/>
      <point x="-83" y="-159"/>
      <point x="-77" y="-143"/>
      <point x="-68" y="-133" type="curve"/>
      <point x="-69" y="-138"/>
      <point x="-69" y="-144"/>
      <point x="-69" y="-151" type="curve" smooth="yes"/>
      <point x="-69" y="-176"/>
      <point x="-52" y="-198"/>
      <point x="-28" y="-198" type="curve" smooth="yes"/>
      <point x="0" y="-198"/>
      <point x="11" y="-175"/>
      <point x="11" y="-145" type="curve" smooth="yes"/>
      <point x="11" y="-100"/>
      <point x="-13" y="-89"/>
      <point x="-36" y="-89" type="curve" smooth="yes"/>
      <point x="-65" y="-89"/>
      <point x="-100" y="-117"/>
      <point x="-100" y="-188" type="curve" smooth="yes"/>
      <point x="-100" y="-239"/>
      <point x="-59" y="-303"/>
      <point x="15" y="-303" type="curve" smooth="yes"/>
      <point x="81" y="-303"/>
      <point x="121" y="-243"/>
      <point x="121" y="-171" type="curve" smooth="yes"/>
      <point x="121" y="-106"/>
      <point x="91" y="-45"/>
      <point x="57" y="-1" type="curve"/>
      <point x="183" y="-1" type="line" smooth="yes"/>
      <point x="255" y="-1"/>
      <point x="303" y="-36"/>
      <point x="303" y="-102" type="curve" smooth="yes"/>
      <point x="303" y="-146"/>
      <point x="281" y="-177"/>
      <point x="239" y="-177" type="curve" smooth="yes"/>
      <point x="204" y="-177"/>
      <point x="184" y="-155"/>
      <point x="184" y="-129" type="curve" smooth="yes"/>
      <point x="184" y="-108"/>
      <point x="188" y="-96"/>
      <point x="194" y="-96" type="curve" smooth="yes"/>
      <point x="196" y="-96"/>
      <point x="196" y="-97"/>
      <point x="196" y="-101" type="curve" smooth="yes"/>
      <point x="196" y="-118"/>
      <point x="207" y="-130"/>
      <point x="223" y="-130" type="curve" smooth="yes"/>
      <point x="239" y="-130"/>
      <point x="251" y="-117"/>
      <point x="251" y="-99" type="curve" smooth="yes"/>
      <point x="251" y="-85"/>
      <point x="239" y="-67"/>
      <point x="213" y="-67" type="curve" smooth="yes"/>
      <point x="176" y="-67"/>
      <point x="160" y="-98"/>
      <point x="160" y="-135" type="curve" smooth="yes"/>
      <point x="160" y="-182"/>
      <point x="189" y="-214"/>
      <point x="230" y="-214" type="curve" smooth="yes"/>
      <point x="282" y="-214"/>
      <point x="323" y="-169"/>
      <point x="323" y="-96" type="curve" smooth="yes"/>
      <point x="323" y="-20"/>
      <point x="265" y="35"/>
      <point x="177" y="35" type="curve" smooth="yes"/>
    </contour>
    <contour>
      <point x="-15" y="-114"/>
      <point x="-2" y="-126"/>
      <point x="-2" y="-143" type="curve" smooth="yes"/>
      <point x="-2" y="-160"/>
      <point x="-12" y="-174"/>
      <point x="-28" y="-174" type="curve" smooth="yes"/>
      <point x="-44" y="-174"/>
      <point x="-55" y="-161"/>
      <point x="-55" y="-142" type="curve" smooth="yes"/>
      <point x="-55" y="-135"/>
      <point x="-53" y="-126"/>
      <point x="-50" y="-118" type="curve"/>
      <point x="-44" y="-115"/>
      <point x="-38" y="-114"/>
      <point x="-32" y="-114" type="curve" smooth="yes"/>
    </contour>
  </outline>
</glyph>
<glyph name="knmE" format="1">
  <advance width="10"/>
  <unicode hex="0CC6"/>
  <outline>
    <contour>
      <point x="-253" y="619"/>
      <point x="-275" y="587"/>
      <point x="-275" y="559" type="curve" smooth="yes"/>
      <point x="-275" y="528"/>
      <point x="-253" y="503"/>
      <point x="-223" y="503" type="curve" smooth="yes"/>
      <point x="-190" y="503"/>
      <point x="-175" y="525"/>
      <point x="-175" y="557" type="curve"/>
      <point x="-176" y="581"/>
      <point x="-173" y="587"/>
      <point x="-159" y="587" type="curve" smooth="yes"/>
      <point x="-133" y="587"/>
      <point x="-111" y="540"/>
      <point x="-111" y="505" type="curve" smooth="yes"/>
      <point x="-111" y="464"/>
      <point x="-137" y="440"/>
      <point x="-183" y="440" type="curve"/>
      <point x="-183" y="368" type="line"/>
      <point x="-114" y="368"/>
      <point x="-65" y="416"/>
      <point x="-65" y="476" type="curve" smooth="yes"/>
      <point x="-65" y="559"/>
      <point x="-126" y="619"/>
      <point x="-187" y="619" type="curve" smooth="yes"/>
    </contour>
  </outline>
</glyph>
<glyph name="knmAU" format="1">
  <advance width="318"/>
  <unicode hex="0CCC"/>
  <outline>
    <contour>
      <point x="-217" y="620" type="line"/>
      <point x="-217" y="548" type="line"/>
      <point x="49" y="548" type="line"/>
      <point x="184" y="548"/>
      <point x="274" y="486"/>
      <point x="274" y="365" type="curve" smooth="yes"/>
      <point x="274" y="282"/>
      <point x="231" y="225"/>
      <point x="154" y="225" type="curve" smooth="yes"/>
      <point x="89" y="225"/>
      <point x="52" y="266"/>
      <point x="52" y="322" type="curve"/>
      <point x="52" y="352"/>
      <point x="60" y="374"/>
      <point x="71" y="374" type="curve" smooth="yes"/>
      <point x="75" y="374"/>
      <point x="76" y="373"/>
      <point x="76" y="366" type="curve" smooth="yes"/>
      <point x="76" y="334"/>
      <point x="95" y="312"/>
      <point x="124" y="312" type="curve" smooth="yes"/>
      <point x="154" y="312"/>
      <point x="176" y="337"/>
      <point x="176" y="368" type="curve" smooth="yes"/>
      <point x="176" y="396"/>
      <point x="154" y="428"/>
      <point x="108" y="428" type="curve" smooth="yes"/>
      <point x="39" y="428"/>
      <point x="7" y="371"/>
      <point x="7" y="303" type="curve"/>
      <point x="7" y="217"/>
      <point x="62" y="156"/>
      <point x="137" y="156" type="curve" smooth="yes"/>
      <point x="233" y="156"/>
      <point x="308" y="240"/>
      <point x="308" y="375" type="curve" smooth="yes"/>
      <point x="308" y="517"/>
      <point x="201" y="620"/>
      <point x="41" y="620" type="curve"/>
    </contour>
    <contour>
      <point x="-143" y="557" type="line"/>
      <point x="-119" y="542"/>
      <point x="-111" y="520"/>
      <point x="-111" y="501" type="curve" smooth="yes"/>
      <point x="-111" y="465"/>
      <point x="-138" y="440"/>
      <point x="-183" y="440" type="curve" smooth="yes"/>
      <point x="-224" y="440" type="line"/>
      <point x="-225" y="368" type="line"/>
      <point x="-183" y="368" type="line"/>
      <point x="-114" y="368"/>
      <point x="-65" y="416"/>
      <point x="-65" y="476" type="curve" smooth="yes"/>
      <point x="-65" y="515"/>
      <point x="-85" y="551"/>
      <point x="-130" y="575" type="curve"/>
    </contour>
  </outline>
</glyph>
<glyph name="knVirama" format="1">
  <advance width="211"/>
  <unicode hex="0CCD"/>
  <outline>
    <contour>
      <point x="157" y="230"/>
      <point x="180" y="262"/>
      <point x="180" y="311" type="curve" smooth="yes"/>
      <point x="180" y="384"/>
      <point x="120" y="440"/>
      <point x="41" y="440" type="curve" smooth="yes"/>
      <point x="-200" y="440" type="line"/>
      <point x="-200" y="368" type="line"/>
      <point x="71" y="368" type="line" smooth="yes"/>
      <point x="121" y="368"/>
      <point x="153" y="354"/>
      <point x="153" y="320" type="curve" smooth="yes"/>
      <point x="153" y="296"/>
      <point x="137" y="281"/>
      <point x="106" y="281" type="curve"/>
      <point x="64" y="281"/>
      <point x="49" y="308"/>
      <point x="49" y="363" type="curve" smooth="yes"/>
      <point x="49" y="448"/>
      <point x="120" y="505"/>
      <point x="203" y="505" type="curve"/>
      <point x="231" y="505" type="line"/>
      <point x="231" y="531" type="line"/>
      <point x="190" y="531" type="line"/>
      <point x="108" y="531"/>
      <point x="19" y="462"/>
      <point x="19" y="358" type="curve" smooth="yes"/>
      <point x="19" y="301"/>
      <point x="41" y="230"/>
      <point x="112" y="230" type="curve" smooth="yes"/>
    </contour>
  </outline>
</glyph>
<glyph name="knLengthmark" format="1">
  <advance width="281"/>
  <unicode hex="0CD5"/>
  <outline>
    <contour>
      <point x="128" y="341"/>
      <point x="114" y="314"/>
      <point x="114" y="283" type="curve" smooth="yes"/>
      <point x="114" y="232"/>
      <point x="138" y="199"/>
      <point x="180" y="199" type="curve" smooth="yes"/>
      <point x="212" y="199"/>
      <point x="261" y="234"/>
      <point x="261" y="300" type="curve" smooth="yes"/>
      <point x="261" y="366"/>
      <point x="229" y="414"/>
      <point x="173" y="414" type="curve" smooth="yes"/>
      <point x="94" y="414"/>
      <point x="50" y="316"/>
      <point x="50" y="216" type="curve" smooth="yes"/>
      <point x="50" y="131"/>
      <point x="83" y="52"/>
      <point x="143" y="-12" type="curve"/>
      <point x="215" y="-12" type="line"/>
      <point x="130" y="62"/>
      <point x="81" y="140"/>
      <point x="81" y="209" type="curve"/>
      <point x="81" y="301"/>
      <point x="118" y="355"/>
      <point x="179" y="355" type="curve" smooth="yes"/>
      <point x="212" y="355"/>
      <point x="237" y="336"/>
      <point x="237" y="302" type="curve" smooth="yes"/>
      <point x="237" y="276"/>
      <point x="215" y="250"/>
      <point x="181" y="250" type="curve" smooth="yes"/>
      <point x="151" y="250"/>
      <point x="135" y="273"/>
      <point x="135" y="302" type="curve" smooth="yes"/>
      <point x="135" y="331"/>
      <point x="147" y="355"/>
      <point x="170" y="381" type="curve"/>
      <point x="137" y="365" type="line"/>
    </contour>
  </outline>
</glyph>
<glyph name="knAIlengthmark" format="1">
  <advance width="70"/>
  <unicode hex="0CD6"/>
  <outline>
    <contour>
      <point x="80" y="-122"/>
      <point x="29" y="-86"/>
      <point x="-2" y="-82" type="curve"/>
      <point x="-4" y="-91" type="line"/>
      <point x="27" y="-105"/>
      <point x="60" y="-135"/>
      <point x="60" y="-181" type="curve" smooth="yes"/>
      <point x="60" y="-229"/>
      <point x="23" y="-262"/>
      <point x="-30" y="-262" type="curve" smooth="yes"/>
      <point x="-94" y="-262"/>
      <point x="-132" y="-226"/>
      <point x="-132" y="-174" type="curve" smooth="yes"/>
      <point x="-132" y="-158"/>
      <point x="-128" y="-138"/>
      <point x="-116" y="-125" type="curve"/>
      <point x="-117" y="-130"/>
      <point x="-118" y="-137"/>
      <point x="-118" y="-141" type="curve" smooth="yes"/>
      <point x="-118" y="-173"/>
      <point x="-98" y="-191"/>
      <point x="-77" y="-191" type="curve" smooth="yes"/>
      <point x="-53" y="-191"/>
      <point x="-38" y="-166"/>
      <point x="-38" y="-138" type="curve" smooth="yes"/>
      <point x="-38" y="-108"/>
      <point x="-51" y="-84"/>
      <point x="-81" y="-84" type="curve" smooth="yes"/>
      <point x="-121" y="-84"/>
      <point x="-150" y="-134"/>
      <point x="-150" y="-183" type="curve" smooth="yes"/>
      <point x="-150" y="-241"/>
      <point x="-112" y="-297"/>
      <point x="-35" y="-297" type="curve" smooth="yes"/>
      <point x="41" y="-297"/>
      <point x="80" y="-252"/>
      <point x="80" y="-185" type="curve" smooth="yes"/>
    </contour>
    <contour>
      <point x="-52" y="-149"/>
      <point x="-60" y="-158"/>
      <point x="-77" y="-158" type="curve" smooth="yes"/>
      <point x="-90" y="-158"/>
      <point x="-103" y="-150"/>
      <point x="-103" y="-130" type="curve" smooth="yes"/>
      <point x="-103" y="-125"/>
      <point x="-103" y="-120"/>
      <point x="-102" y="-116" type="curve"/>
      <point x="-98" y="-113"/>
      <point x="-91" y="-110"/>
      <point x="-83" y="-110" type="curve" smooth="yes"/>
      <point x="-65" y="-110"/>
      <point x="-52" y="-120"/>
      <point x="-52" y="-138" type="curve" smooth="yes"/>
    </contour>
    <contour>
      <point x="10" y="-92" type="line"/>
      <point x="41" y="-79"/>
      <point x="71" y="-57"/>
      <point x="71" y="-21" type="curve" smooth="yes"/>
      <point x="71" y="13"/>
      <point x="38" y="36"/>
      <point x="6" y="48" type="curve"/>
      <point x="-1" y="37" type="line"/>
      <point x="23" y="27"/>
      <point x="41" y="4"/>
      <point x="41" y="-20" type="curve" smooth="yes"/>
      <point x="41" y="-49"/>
      <point x="18" y="-73"/>
      <point x="-2" y="-82" type="curve"/>
    </contour>
  </outline>
</glyph>
<glyph name="knvRR" format="1">
  <advance width="1240"/>
  <unicode hex="0CE0"/>
  <outline>
    <contour>
      <point x="574" y="567" type="line"/>
      <point x="598" y="552"/>
      <point x="606" y="530"/>
      <point x="606" y="511" type="curve" smooth="yes"/>
      <point x="606" y="475"/>
      <point x="579" y="450"/>
      <point x="534" y="450" type="curve" smooth="yes"/>
      <point x="366" y="450" type="line"/>
      <point x="366" y="378" type="line"/>
      <point x="534" y="378" type="line" smooth="yes"/>
      <point x="603" y="378"/>
      <point x="652" y="426"/>
      <point x="652" y="486" type="curve" smooth="yes"/>
      <point x="652" y="525"/>
      <point x="632" y="561"/>
      <point x="587" y="585" type="curve"/>
    </contour>
    <contour>
      <point x="623" y="339"/>
      <point x="524" y="450"/>
      <point x="449" y="450" type="curve" smooth="yes"/>
      <point x="418" y="450"/>
      <point x="401" y="433"/>
      <point x="401" y="413" type="curve" smooth="yes"/>
      <point x="401" y="393"/>
      <point x="411" y="378"/>
      <point x="437" y="378" type="curve"/>
      <point x="523" y="362"/>
      <point x="587" y="292"/>
      <point x="587" y="213" type="curve" smooth="yes"/>
      <point x="587" y="136"/>
      <point x="527" y="79"/>
      <point x="453" y="79" type="curve"/>
      <point x="394" y="79"/>
      <point x="334" y="124"/>
      <point x="317" y="163" type="curve"/>
      <point x="296" y="102" type="line"/>
      <point x="324" y="52"/>
      <point x="398" y="-14"/>
      <point x="463" y="-14" type="curve"/>
      <point x="572" y="-14"/>
      <point x="623" y="93"/>
      <point x="623" y="203" type="curve" smooth="yes"/>
    </contour>
    <contour>
      <point x="323" y="343"/>
      <point x="231" y="450"/>
      <point x="150" y="450" type="curve" smooth="yes"/>
      <point x="89" y="450"/>
      <point x="66" y="404"/>
      <point x="66" y="347" type="curve" smooth="yes"/>
      <point x="66" y="290"/>
      <point x="94" y="244"/>
      <point x="140" y="244" type="curve" smooth="yes"/>
      <point x="182" y="244"/>
      <point x="218" y="275"/>
      <point x="218" y="338" type="curve" smooth="yes"/>
      <point x="218" y="370"/>
      <point x="211" y="398"/>
      <point x="200" y="417" type="curve"/>
      <point x="179" y="413" type="line"/>
      <point x="188" y="403"/>
      <point x="192" y="382"/>
      <point x="192" y="362" type="curve" smooth="yes"/>
      <point x="192" y="322"/>
      <point x="168" y="306"/>
      <point x="140" y="306" type="curve" smooth="yes"/>
      <point x="108" y="306"/>
      <point x="92" y="324"/>
      <point x="92" y="347" type="curve" smooth="yes"/>
      <point x="92" y="381"/>
      <point x="113" y="397"/>
      <point x="155" y="397" type="curve" smooth="yes"/>
      <point x="222" y="397"/>
      <point x="287" y="295"/>
      <point x="287" y="214" type="curve"/>
      <point x="287" y="111"/>
      <point x="222" y="39"/>
      <point x="155" y="39" type="curve" smooth="yes"/>
      <point x="113" y="39"/>
      <point x="92" y="55"/>
      <point x="92" y="89" type="curve" smooth="yes"/>
      <point x="92" y="112"/>
      <point x="108" y="130"/>
      <point x="140" y="130" type="curve" smooth="yes"/>
      <point x="168" y="130"/>
      <point x="192" y="114"/>
      <point x="192" y="74" type="curve" smooth="yes"/>
      <point x="192" y="54"/>
      <point x="188" y="33"/>
      <point x="179" y="23" type="curve"/>
      <point x="200" y="19" type="line"/>
      <point x="211" y="38"/>
      <point x="218" y="66"/>
      <point x="218" y="98" type="curve" smooth="yes"/>
      <point x="218" y="161"/>
      <point x="182" y="192"/>
      <point x="140" y="192" type="curve" smooth="yes"/>
      <point x="94" y="192"/>
      <point x="66" y="146"/>
      <point x="66" y="89" type="curve" smooth="yes"/>
      <point x="66" y="32"/>
      <point x="89" y="-14"/>
      <point x="150" y="-14" type="curve" smooth="yes"/>
      <point x="231" y="-14"/>
      <point x="323" y="91"/>
      <point x="323" y="207" type="curve"/>
    </contour>
    <contour>
      <point x="852" y="-14"/>
      <point x="874" y="88"/>
      <point x="874" y="254" type="curve"/>
      <point x="874" y="360"/>
      <point x="961" y="378"/>
      <point x="1009" y="378" type="curve" smooth="yes"/>
      <point x="1081" y="378"/>
      <point x="1164" y="313"/>
      <point x="1164" y="207" type="curve" smooth="yes"/>
      <point x="1164" y="107"/>
      <point x="1113" y="42"/>
      <point x="1051" y="42" type="curve" smooth="yes"/>
      <point x="1014" y="42"/>
      <point x="984" y="67"/>
      <point x="984" y="99" type="curve"/>
      <point x="984" y="113"/>
      <point x="990" y="133"/>
      <point x="1001" y="133" type="curve" smooth="yes"/>
      <point x="1003" y="133"/>
      <point x="1004" y="132"/>
      <point x="1004" y="127" type="curve" smooth="yes"/>
      <point x="1004" y="101"/>
      <point x="1019" y="83"/>
      <point x="1043" y="83" type="curve" smooth="yes"/>
      <point x="1067" y="83"/>
      <point x="1085" y="103"/>
      <point x="1085" y="128" type="curve" smooth="yes"/>
      <point x="1085" y="151"/>
      <point x="1064" y="177"/>
      <point x="1026" y="177" type="curve" smooth="yes"/>
      <point x="974" y="177"/>
      <point x="948" y="131"/>
      <point x="948" y="84" type="curve"/>
      <point x="948" y="30"/>
      <point x="992" y="-14"/>
      <point x="1045" y="-14" type="curve" smooth="yes"/>
      <point x="1131" y="-14"/>
      <point x="1200" y="65"/>
      <point x="1200" y="217" type="curve" smooth="yes"/>
      <point x="1200" y="379"/>
      <point x="1101" y="450"/>
      <point x="999" y="450" type="curve"/>
      <point x="918" y="450"/>
      <point x="833" y="395"/>
      <point x="833" y="253" type="curve"/>
      <point x="833" y="152"/>
      <point x="819" y="79"/>
      <point x="747" y="79" type="curve"/>
      <point x="688" y="79"/>
      <point x="628" y="124"/>
      <point x="611" y="163" type="curve"/>
      <point x="590" y="102" type="line"/>
      <point x="618" y="52"/>
      <point x="693" y="-14"/>
      <point x="757" y="-14" type="curve"/>
    </contour>
  </outline>
</glyph>
<glyph name="knmvLL" format="1">
  <advance width="254"/>
  <unicode hex="0CE3"/>
  <outline>
    <contour>
      <point x="203" y="-343"/>
      <point x="243" y="-307"/>
      <point x="243" y="-216" type="curve"/>
      <point x="243" y="-166"/>
      <point x="227" y="-126"/>
      <point x="200" y="-97" type="curve"/>
      <point x="298" y="-97" type="line"/>
      <point x="364" y="-97"/>
      <point x="434" y="-138"/>
      <point x="434" y="-204" type="curve" smooth="yes"/>
      <point x="434" y="-266"/>
      <point x="402" y="-307"/>
      <point x="364" y="-307" type="curve" smooth="yes"/>
      <point x="339" y="-307"/>
      <point x="321" y="-292"/>
      <point x="321" y="-272" type="curve"/>
      <point x="321" y="-263"/>
      <point x="325" y="-251"/>
      <point x="332" y="-251" type="curve" smooth="yes"/>
      <point x="333" y="-251"/>
      <point x="334" y="-251"/>
      <point x="334" y="-253" type="curve" smooth="yes"/>
      <point x="334" y="-271"/>
      <point x="343" y="-282"/>
      <point x="357" y="-282" type="curve" smooth="yes"/>
      <point x="374" y="-282"/>
      <point x="384" y="-269"/>
      <point x="384" y="-253" type="curve" smooth="yes"/>
      <point x="384" y="-239"/>
      <point x="372" y="-223"/>
      <point x="347" y="-223" type="curve" smooth="yes"/>
      <point x="314" y="-223"/>
      <point x="297" y="-251"/>
      <point x="297" y="-281" type="curve"/>
      <point x="297" y="-316"/>
      <point x="325" y="-343"/>
      <point x="359" y="-343" type="curve" smooth="yes"/>
      <point x="413" y="-343"/>
      <point x="458" y="-293"/>
      <point x="458" y="-204" type="curve" smooth="yes"/>
      <point x="458" y="-96"/>
      <point x="382" y="-51"/>
      <point x="305" y="-51" type="curve"/>
      <point x="168" y="-51" type="line"/>
      <point x="147" y="-79" type="line"/>
      <point x="183" y="-113"/>
      <point x="220" y="-156"/>
      <point x="220" y="-205" type="curve"/>
      <point x="220" y="-260"/>
      <point x="195" y="-285"/>
      <point x="112" y="-285" type="curve"/>
      <point x="53" y="-285"/>
      <point x="36" y="-270"/>
      <point x="36" y="-248" type="curve" smooth="yes"/>
      <point x="36" y="-198"/>
      <point x="114" y="-209"/>
      <point x="114" y="-132" type="curve" smooth="yes"/>
      <point x="114" y="-83"/>
      <point x="82" y="-51"/>
      <point x="48" y="-51" type="curve" smooth="yes"/>
      <point x="5" y="-51"/>
      <point x="-29" y="-83"/>
      <point x="-41" y="-129" type="curve"/>
      <point x="-42" y="-129" type="line"/>
      <point x="-55" y="-83"/>
      <point x="-93" y="-51"/>
      <point x="-131" y="-51" type="curve" smooth="yes"/>
      <point x="-172" y="-51"/>
      <point x="-204" y="-86"/>
      <point x="-204" y="-129" type="curve" smooth="yes"/>
      <point x="-204" y="-146"/>
      <point x="-200" y="-160"/>
      <point x="-188" y="-173" type="curve"/>
      <point x="-171" y="-162" type="line"/>
      <point x="-175" y="-158"/>
      <point x="-178" y="-149"/>
      <point x="-178" y="-142" type="curve" smooth="yes"/>
      <point x="-178" y="-121"/>
      <point x="-161" y="-110"/>
      <point x="-135" y="-110" type="curve" smooth="yes"/>
      <point x="-90" y="-110"/>
      <point x="-52" y="-139"/>
      <point x="-44" y="-181" type="curve"/>
      <point x="-39" y="-181" type="line"/>
      <point x="-32" y="-139"/>
      <point x="5" y="-110"/>
      <point x="40" y="-110" type="curve" smooth="yes"/>
      <point x="69" y="-110"/>
      <point x="88" y="-124"/>
      <point x="88" y="-148" type="curve" smooth="yes"/>
      <point x="88" y="-188"/>
      <point x="10" y="-185"/>
      <point x="10" y="-259" type="curve" smooth="yes"/>
      <point x="10" y="-306"/>
      <point x="39" y="-343"/>
      <point x="123" y="-343" type="curve"/>
    </contour>
    <contour>
      <point x="0" y="0" type="move" name="_bottom"/>
    </contour>
  </outline>
</glyph>
<glyph name="knOne" format="1">
  <advance width="482"/>
  <unicode hex="0CE7"/>
  <outline>
    <contour>
      <point x="318" y="384"/>
      <point x="387" y="339"/>
      <point x="387" y="225" type="curve" smooth="yes"/>
      <point x="387" y="130"/>
      <point x="347" y="81"/>
      <point x="283" y="38" type="curve"/>
      <point x="321" y="-14" type="line"/>
      <point x="397" y="56"/>
      <point x="427" y="120"/>
      <point x="427" y="215" type="curve" smooth="yes"/>
      <point x="427" y="356"/>
      <point x="351" y="450"/>
      <point x="241" y="450" type="curve"/>
      <point x="131" y="450"/>
      <point x="55" y="356"/>
      <point x="55" y="215" type="curve" smooth="yes"/>
      <point x="55" y="120"/>
      <point x="85" y="56"/>
      <point x="161" y="-14" type="curve"/>
      <point x="199" y="38" type="line"/>
      <point x="135" y="81"/>
      <point x="95" y="130"/>
      <point x="95" y="225" type="curve" smooth="yes"/>
      <point x="95" y="339"/>
      <point x="164" y="384"/>
      <point x="241" y="384" type="curve"/>
    </contour>
  </outline>
</glyph>
<glyph name="knFour" format="1">
  <advance width="498"/>
  <unicode hex="0CEA"/>
  <outline>
    <contour>
      <point x="478" y="404"/>
      <point x="412" y="450"/>
      <point x="369" y="450" type="curve" smooth="yes"/>
      <point x="348" y="450"/>
      <point x="336" y="439"/>
      <point x="336" y="425" type="curve" smooth="yes"/>
      <point x="336" y="419"/>
      <point x="340" y="413"/>
      <point x="346" y="409" type="curve" smooth="yes"/>
      <point x="354" y="404"/>
      <point x="370" y="407"/>
      <point x="383" y="404" type="curve" smooth="yes"/>
      <point x="422" y="395"/>
      <point x="444" y="364"/>
      <point x="444" y="316" type="curve"/>
      <point x="444" y="191"/>
      <point x="194" y="203"/>
      <point x="194" y="73" type="curve"/>
      <point x="194" y="23"/>
      <point x="224" y="-14"/>
      <point x="277" y="-14" type="curve"/>
      <point x="335" y="-14"/>
      <point x="365" y="28"/>
      <point x="365" y="93" type="curve" smooth="yes"/>
      <point x="365" y="277"/>
      <point x="66" y="175"/>
      <point x="66" y="324" type="curve"/>
      <point x="66" y="381"/>
      <point x="106" y="397"/>
      <point x="174" y="397" type="curve" smooth="yes"/>
      <point x="213" y="397"/>
      <point x="227" y="385"/>
      <point x="227" y="371" type="curve" smooth="yes"/>
      <point x="227" y="357"/>
      <point x="208" y="346"/>
      <point x="177" y="346" type="curve" smooth="yes"/>
      <point x="141" y="346"/>
      <point x="127" y="362"/>
      <point x="127" y="382" type="curve" smooth="yes"/>
      <point x="127" y="402"/>
      <point x="134" y="408"/>
      <point x="140" y="413" type="curve"/>
      <point x="119" y="417" type="line"/>
      <point x="108" y="398"/>
      <point x="101" y="390"/>
      <point x="101" y="358" type="curve" smooth="yes"/>
      <point x="101" y="315"/>
      <point x="127" y="284"/>
      <point x="169" y="284" type="curve" smooth="yes"/>
      <point x="225" y="284"/>
      <point x="253" y="323"/>
      <point x="253" y="371" type="curve" smooth="yes"/>
      <point x="253" y="417"/>
      <point x="230" y="450"/>
      <point x="169" y="450" type="curve" smooth="yes"/>
      <point x="94" y="450"/>
      <point x="25" y="398"/>
      <point x="25" y="314" type="curve"/>
      <point x="25" y="117"/>
      <point x="299" y="196"/>
      <point x="299" y="108" type="curve"/>
      <point x="299" y="88"/>
      <point x="289" y="77"/>
      <point x="272" y="77" type="curve"/>
      <point x="254" y="77"/>
      <point x="244" y="87"/>
      <point x="244" y="104" type="curve"/>
      <point x="244" y="175"/>
      <point x="478" y="177"/>
      <point x="478" y="316" type="curve"/>
    </contour>
  </outline>
</glyph>
<glyph name="knFive" format="1">
  <advance width="518"/>
  <unicode hex="0CEB"/>
  <outline>
    <contour>
      <point x="55" y="180"/>
      <point x="168" y="209"/>
      <point x="275" y="236" type="curve"/>
      <point x="370" y="260"/>
      <point x="459" y="283"/>
      <point x="459" y="343" type="curve"/>
      <point x="459" y="370"/>
      <point x="441" y="384"/>
      <point x="420" y="384" type="curve" smooth="yes"/>
      <point x="398" y="384"/>
      <point x="375" y="365"/>
      <point x="375" y="333" type="curve" smooth="yes"/>
      <point x="375" y="243"/>
      <point x="451" y="212"/>
      <point x="451" y="96" type="curve" smooth="yes"/>
      <point x="451" y="50"/>
      <point x="424" y="9"/>
      <point x="388" y="-14" type="curve"/>
      <point x="382" y="-14" type="line"/>
      <point x="368" y="-9"/>
      <point x="342" y="14"/>
      <point x="335" y="28" type="curve"/>
      <point x="335" y="33" type="line"/>
      <point x="365" y="45"/>
      <point x="392" y="81"/>
      <point x="392" y="118" type="curve" smooth="yes"/>
      <point x="392" y="198"/>
      <point x="343" y="228"/>
      <point x="343" y="338" type="curve" smooth="yes"/>
      <point x="343" y="408"/>
      <point x="371" y="449"/>
      <point x="422" y="449" type="curve" smooth="yes"/>
      <point x="466" y="449"/>
      <point x="498" y="418"/>
      <point x="498" y="361" type="curve"/>
      <point x="498" y="263"/>
      <point x="379" y="231"/>
      <point x="284" y="207" type="curve"/>
      <point x="177" y="180"/>
      <point x="93" y="155"/>
      <point x="93" y="100" type="curve"/>
      <point x="93" y="77"/>
      <point x="111" y="58"/>
      <point x="147" y="58" type="curve"/>
      <point x="206" y="58"/>
      <point x="254" y="115"/>
      <point x="254" y="215" type="curve"/>
      <point x="254" y="329"/>
      <point x="224" y="384"/>
      <point x="159" y="384" type="curve"/>
      <point x="124" y="384"/>
      <point x="102" y="369"/>
      <point x="102" y="345" type="curve" smooth="yes"/>
      <point x="102" y="320"/>
      <point x="123" y="309"/>
      <point x="148" y="309" type="curve" smooth="yes"/>
      <point x="170" y="309"/>
      <point x="185" y="318"/>
      <point x="193" y="329" type="curve"/>
      <point x="207" y="312" type="line"/>
      <point x="202" y="270"/>
      <point x="174" y="242"/>
      <point x="139" y="242" type="curve" smooth="yes"/>
      <point x="96" y="242"/>
      <point x="64" y="286"/>
      <point x="64" y="343" type="curve" smooth="yes"/>
      <point x="64" y="410"/>
      <point x="102" y="450"/>
      <point x="162" y="450" type="curve"/>
      <point x="235" y="450"/>
      <point x="289" y="366"/>
      <point x="289" y="224" type="curve"/>
      <point x="289" y="106"/>
      <point x="258" y="-14"/>
      <point x="158" y="-14" type="curve" smooth="yes"/>
      <point x="89" y="-14"/>
      <point x="55" y="35"/>
      <point x="55" y="85" type="curve"/>
    </contour>
  </outline>
</glyph>
<glyph name="knNine" format="1">
  <advance width="463"/>
  <unicode hex="0CEF"/>
  <outline>
    <contour>
      <point x="65" y="52"/>
      <point x="152" y="-14"/>
      <point x="227" y="-14" type="curve" smooth="yes"/>
      <point x="258" y="-14"/>
      <point x="275" y="3"/>
      <point x="275" y="23" type="curve" smooth="yes"/>
      <point x="275" y="38"/>
      <point x="266" y="51"/>
      <point x="254" y="57" type="curve" smooth="yes"/>
      <point x="241" y="64"/>
      <point x="221" y="60"/>
      <point x="193" y="66" type="curve" smooth="yes"/>
      <point x="140" y="77"/>
      <point x="101" y="107"/>
      <point x="101" y="163" type="curve"/>
      <point x="101" y="217"/>
      <point x="137" y="260"/>
      <point x="190" y="260" type="curve" smooth="yes"/>
      <point x="224" y="260"/>
      <point x="241" y="245"/>
      <point x="241" y="224" type="curve" smooth="yes"/>
      <point x="241" y="199"/>
      <point x="219" y="189"/>
      <point x="183" y="189" type="curve" smooth="yes"/>
      <point x="130" y="189"/>
      <point x="75" y="224"/>
      <point x="75" y="284" type="curve" smooth="yes"/>
      <point x="75" y="338"/>
      <point x="116" y="364"/>
      <point x="182" y="364" type="curve" smooth="yes"/>
      <point x="458" y="364" type="line"/>
      <point x="458" y="440" type="line"/>
      <point x="202" y="440" type="line" smooth="yes"/>
      <point x="114" y="440"/>
      <point x="45" y="395"/>
      <point x="45" y="291" type="curve"/>
      <point x="45" y="145"/>
      <point x="144" y="128"/>
      <point x="192" y="128" type="curve" smooth="yes"/>
      <point x="252" y="128"/>
      <point x="291" y="165"/>
      <point x="291" y="215" type="curve" smooth="yes"/>
      <point x="291" y="258"/>
      <point x="257" y="297"/>
      <point x="193" y="297" type="curve"/>
      <point x="107" y="297"/>
      <point x="65" y="239"/>
      <point x="65" y="154" type="curve" smooth="yes"/>
    </contour>
  </outline>
</glyph>
<glyph name="arch" format="1">
  <advance width="702"/>
  <outline>
    <contour>
      <point x="586" y="130" type="line"/>
      <point x="561" y="182" type="line"/>
      <point x="561" y="277"/>
      <point x="468" y="388"/>
      <point x="351" y="388" type="curve"/>
      <point x="234" y="388"/>
      <point x="141" y="277"/>
      <point x="141" y="182" type="curve"/>
      <point x="115" y="130" type="line"/>
      <point x="95" y="154" type="line"/>
      <point x="95" y="308"/>
      <point x="231" y="414"/>
      <point x="351" y="414" type="curve"/>
      <point x="471" y="414"/>
      <point x="607" y="308"/>
      <point x="607" y="154" type="curve"/>
    </contour>
  </outline>
</glyph>
<glyph name="crossbar" format="1">
  <advance width="477"/>
  <outline>
    <contour>
      <point x="43" y="316" type="line"/>
      <point x="43" y="254" type="line"/>
      <point x="190" y="254" type="line"/>
      <point x="238" y="264" type="line" smooth="yes"/>
      <point x="290" y="254" type="line"/>
      <point x="433" y="254" type="line"/>
      <point x="433" y="316" type="line"/>
    </contour>
  </outline>
</glyph>
<glyph name="dot" format="1">
  <advance width="698"/>
  <outline>
    <contour>
      <point x="343" y="386" type="move"/>
      <point x="343" y="420"/>
      <point x="361" y="433"/>
      <point x="376" y="433" type="curve" smooth="yes"/>
      <point x="380" y="433"/>
      <point x="381" y="432"/>
      <point x="381" y="427" type="curve" smooth="yes"/>
      <point x="381" y="401"/>
      <point x="396" y="383"/>
      <point x="420" y="383" type="curve" smooth="yes"/>
      <point x="444" y="383"/>
      <point x="462" y="403"/>
      <point x="462" y="428" type="curve" smooth="yes"/>
      <point x="462" y="451"/>
      <point x="441" y="477"/>
      <point x="403" y="477" type="curve" smooth="yes"/>
      <point x="351" y="477"/>
      <point x="304" y="431"/>
      <point x="304" y="363" type="curve"/>
    </contour>
  </outline>
</glyph>
<glyph name="eye" format="1">
  <advance width="632"/>
  <outline>
    <contour>
      <point x="89" y="231" type="line"/>
      <point x="115" y="254" type="line"/>
      <point x="115" y="341"/>
      <point x="155" y="397"/>
      <point x="213" y="397" type="curve" smooth="yes"/>
      <point x="255" y="397"/>
      <point x="276" y="381"/>
      <point x="276" y="347" type="curve" smooth="yes"/>
      <point x="276" y="324"/>
      <point x="260" y="306"/>
      <point x="228" y="306" type="curve" smooth="yes"/>
      <point x="200" y="306"/>
      <point x="176" y="322"/>
      <point x="176" y="362" type="curve" smooth="yes"/>
      <point x="176" y="382"/>
      <point x="180" y="403"/>
      <point x="189" y="413" type="curve"/>
      <point x="168" y="417" type="line"/>
      <point x="157" y="398"/>
      <point x="150" y="370"/>
      <point x="150" y="338" type="curve" smooth="yes"/>
      <point x="150" y="275"/>
      <point x="186" y="244"/>
      <point x="228" y="244" type="curve" smooth="yes"/>
      <point x="274" y="244"/>
      <point x="302" y="290"/>
      <point x="302" y="347" type="curve" smooth="yes"/>
      <point x="302" y="404"/>
      <point x="279" y="450"/>
      <point x="218" y="450" type="curve" smooth="yes"/>
      <point x="143" y="450"/>
      <point x="74" y="358"/>
      <point x="74" y="244" type="curve"/>
    </contour>
  </outline>
</glyph>
<glyph name="hook" format="1">
  <advance width="656"/>
  <outline>
    <contour>
      <point x="188" y="79" type="line"/>
      <point x="140" y="79"/>
      <point x="114" y="108"/>
      <point x="114" y="143" type="curve" smooth="yes"/>
      <point x="114" y="175"/>
      <point x="137" y="196"/>
      <point x="169" y="196" type="curve" smooth="yes"/>
      <point x="195" y="196"/>
      <point x="217" y="187"/>
      <point x="226" y="166" type="curve"/>
      <point x="240" y="179" type="line"/>
      <point x="229" y="216"/>
      <point x="208" y="248"/>
      <point x="166" y="248" type="curve" smooth="yes"/>
      <point x="114" y="248"/>
      <point x="77" y="200"/>
      <point x="77" y="123" type="curve" smooth="yes"/>
      <point x="77" y="47"/>
      <point x="116" y="-14"/>
      <point x="182" y="-14" type="curve"/>
    </contour>
  </outline>
</glyph>
<glyph name="lip" format="1">
  <advance width="510"/>
  <outline>
    <contour>
      <point x="399" y="557" type="line"/>
      <point x="423" y="542"/>
      <point x="431" y="520"/>
      <point x="431" y="501" type="curve" smooth="yes"/>
      <point x="431" y="465"/>
      <point x="404" y="440"/>
      <point x="359" y="440" type="curve" smooth="yes"/>
      <point x="80" y="440" type="line"/>
      <point x="80" y="368" type="line"/>
      <point x="359" y="368" type="line"/>
      <point x="428" y="368"/>
      <point x="477" y="416"/>
      <point x="477" y="476" type="curve" smooth="yes"/>
      <point x="477" y="515"/>
      <point x="457" y="551"/>
      <point x="412" y="575" type="curve"/>
    </contour>
  </outline>
</glyph>
<glyph name="swan" format="1">
  <advance width="611"/>
  <outline>
    <contour>
      <point x="118" y="163"/>
      <point x="144" y="189"/>
      <point x="172" y="218" type="curve" smooth="yes"/>
      <point x="207" y="254"/>
      <point x="246" y="294"/>
      <point x="246" y="345" type="curve" smooth="yes"/>
      <point x="246" y="410"/>
      <point x="195" y="450"/>
      <point x="138" y="450" type="curve" smooth="yes"/>
      <point x="88" y="450"/>
      <point x="36" y="420"/>
      <point x="36" y="360" type="curve" smooth="yes"/>
      <point x="36" y="332"/>
      <point x="46" y="304"/>
      <point x="64" y="285" type="curve"/>
      <point x="91" y="303" type="line"/>
      <point x="84" y="316"/>
      <point x="82" y="326"/>
      <point x="82" y="336" type="curve" smooth="yes"/>
      <point x="82" y="368"/>
      <point x="104" y="391"/>
      <point x="138" y="391" type="curve" smooth="yes"/>
      <point x="170" y="391"/>
      <point x="200" y="370"/>
      <point x="200" y="333" type="curve" smooth="yes"/>
      <point x="200" y="297"/>
      <point x="173" y="269"/>
      <point x="145" y="240" type="curve" smooth="yes"/>
      <point x="111" y="205"/>
      <point x="74" y="168"/>
      <point x="74" y="109" type="curve"/>
      <point x="111" y="109" type="line"/>
      <point x="118" y="136" type="line"/>
    </contour>
  </outline>
</glyph>
